<?xml version="1.0" encoding="UTF-8" standalone="no"?>
<!DOCTYPE svg PUBLIC "-//W3C//DTD SVG 1.1//EN" "http://www.w3.org/Graphics/SVG/1.1/DTD/svg11.dtd">
<svg width="100%" height="100%" viewBox="0 0 515 616" version="1.1" xmlns="http://www.w3.org/2000/svg" xmlns:xlink="http://www.w3.org/1999/xlink" xml:space="preserve" xmlns:serif="http://www.serif.com/" style="fill-rule:evenodd;clip-rule:evenodd;stroke-linejoin:round;stroke-miterlimit:2;">
    <g transform="matrix(1,0,0,1,-7803.22,-499.581)">
        <g id="Logo---Hands-Four" serif:id="Logo - Hands Four" transform="matrix(1.26282,0,0,1.7471,-1.26257,-357.494)">
            <rect x="6180.2" y="490.572" width="407.287" height="352.46" style="fill:none;"/>
            <g id="Logo---Final" serif:id="Logo - Final" transform="matrix(0.791878,0,0,0.572379,2670.15,318.744)">
                <g transform="matrix(1,0,0,1,4279.29,-279.065)">
                    <path d="M227.629,690.08C226.287,680.844 226.745,672.525 228.301,665.346L231.397,655.34L236.339,645.924L243.15,637.516L251.679,630.603L261.557,625.64L272.24,622.92L283.13,622.503L293.713,624.232C303.102,626.708 313.238,631.944 322.69,641.206C323.186,636.827 324.099,632.767 325.306,629.066L330.098,618.305L337.286,608.615L346.794,600.686L358.191,595.266C379.511,588.297 414.997,594.471 434.149,641.954C436.315,647.325 440.681,657.354 445.985,669.319C449.426,656.089 455.433,645.943 461.858,639.005L475.711,628.242L484.661,624.596L494.789,622.855L505.438,623.546L515.613,626.755L524.454,632.013L531.594,638.603C539.605,647.566 547.611,663.372 548.679,688.45C549.283,702.655 550.339,743.262 555.446,777.778C557.556,792.045 563.61,811.276 564.333,813.548C593.43,842.977 682.589,947.626 614.023,1061.35C610.431,1072.62 599.612,1100.51 567.27,1123.04C538.685,1142.95 490.96,1160.1 410.379,1150.05C308.015,1137.28 245.025,1060.26 230.577,1016.92L228.499,1007.8L228.192,998.833L230.325,986.727L234.388,976.52C240.048,965.227 250.96,952.499 265.799,940.166C271.635,935.316 278.142,930.439 285.062,925.618C253.79,890.89 207.754,816.569 176.847,769.992C170.157,759.912 166.778,750.958 165.264,743.519L164.162,733.421L165.205,722.699L168.097,713.751L172.882,705.484L179.209,698.55L186.483,693.313L196.052,689.141L205.53,687.213L223.366,688.39L227.629,690.08Z" style="fill:rgb(17,24,39);"/>
                </g>
                <g transform="matrix(1,0,0,1,4279.29,-279.065)">
                    <path d="M319.112,912.96C290.591,890.172 238.328,802.976 204.336,751.751C183.407,720.212 213.212,711.296 229.811,728.694C245.704,745.35 319.218,831.159 327.139,830.709C338.768,830.049 278.61,739.935 262.901,695.69C250.034,659.449 280.293,641.35 302.896,668.344C336.142,708.048 381.303,792.549 392.673,789.725C402.073,787.39 360.002,669.427 358.104,664.052C344.272,624.871 384.347,606.678 403.553,654.294C414.978,682.62 462.271,802.414 466.001,776.298C472.753,729.035 472.946,721.686 476.306,686.862C480.009,648.474 513.656,641.406 515.718,689.853C516.764,714.437 519.295,815.162 540.003,835.868C563.781,859.643 645.846,949.669 583.715,1047.63C582.731,1049.19 567.032,1136.34 414.462,1117.31C328.174,1106.55 274.053,1043.02 261.875,1006.49C248.944,967.695 402.565,896.709 414.558,891.912C419.756,889.833 430.403,884.948 436.009,883.079C478.938,868.77 441.44,954.202 411.176,966.411C408.575,967.461 383.578,986.328 362.822,989.074C340.718,991.999 352.795,1018.69 377.056,1016.18C439.883,1009.69 469.582,921.845 474.723,905.944C484.369,876.108 453.755,857.019 437.766,858.367C395.214,861.957 336.286,895.786 319.112,912.96Z" style="fill:rgb(249,250,251);"/>
                </g>
            </g>
        </g>
    </g>
</svg>
