<?xml version="1.0" encoding="UTF-8" standalone="no"?>
<!DOCTYPE svg PUBLIC "-//W3C//DTD SVG 1.1//EN" "http://www.w3.org/Graphics/SVG/1.1/DTD/svg11.dtd">
<svg width="100%" height="100%" viewBox="0 0 863 1023" version="1.1" xmlns="http://www.w3.org/2000/svg" xmlns:xlink="http://www.w3.org/1999/xlink" xml:space="preserve" xmlns:serif="http://www.serif.com/" style="fill-rule:evenodd;clip-rule:evenodd;stroke-linejoin:round;stroke-miterlimit:2;">
    <g transform="matrix(1,0,0,1,-6673.74,-561.702)">
        <g id="Logo---Hands-Together" serif:id="Logo - Hands Together" transform="matrix(2.11644,0,0,2.9002,-6406.3,-861.056)">
            <rect x="6180.2" y="490.572" width="407.287" height="352.46" style="fill:none;"/>
            <g id="Logo---Final" serif:id="Logo - Final" transform="matrix(0.472491,0,0,0.344803,4088.51,392.397)">
                <g transform="matrix(1,0,0,1,4168.27,91.7167)">
                    <g transform="matrix(1,0,0,1,46.2108,-448.905)">
                        <path d="M1002.8,1294.84L1000.7,1293.15C1001.7,1293.9 1002.69,1294.67 1003.06,1295.03L1002.8,1294.84ZM1002.8,1294.84L1012,1302.23C1015.38,1305.78 1018.93,1310.31 1022.11,1316.13C1030.42,1331.32 1038.63,1358.94 1022.9,1408.72C1012.88,1440.44 985.461,1528.98 969.094,1566.06C964.982,1575.38 961.071,1582.29 958.138,1586.24L952.281,1592.75L944.095,1598.36C933.128,1603.84 905.649,1608 871.981,1608.6C811.939,1609.65 728.929,1603.82 712.896,1602.43L712.517,1602.45L699.5,1601.49L687.755,1597.45C681.114,1594.21 672.582,1588.43 662.941,1575.94C646.336,1554.43 620.032,1501.96 580.98,1372.6L579.465,1363.61L579.937,1355.29C581.028,1348.07 585.714,1334.06 595.061,1318.16C619.456,1276.65 675.259,1221.68 748.19,1240.52C756.048,1242.55 769.385,1250.03 782.285,1261.38C794.274,1271.93 806.289,1285.55 813.685,1296.6C844.871,1289.8 889.13,1281.33 924.871,1278.94C946.806,1277.48 966.005,1278.52 978.994,1282.13L993.167,1287.84L1002.8,1294.84ZM1000.7,1293.15C999.431,1292.19 998.158,1291.25 998.158,1291.25C998.158,1291.25 998.606,1291.52 998.885,1291.69L1000.7,1293.15Z" style="fill:rgb(17,24,39);"/>
                    </g>
                    <g transform="matrix(1,0,0,1,48.2298,-445.876)">
                        <path d="M808.268,1121C811.193,1099.58 813.566,1081.43 814.264,1074.04C814.608,1070.39 815.231,1066.91 816.086,1063.61L819.502,1053.78L824.396,1044.81L830.602,1036.91L837.938,1030.23L846.233,1024.91L855.329,1021.06L865.067,1018.82L875.248,1018.37L885.581,1019.86L895.665,1023.41L905.018,1028.95L913.187,1036.27L919.867,1044.98C923.395,1050.54 926.42,1057.22 928.488,1065.18C929.359,1068.53 930.473,1080.44 930.514,1097.78C930.637,1149.91 926.671,1266.9 925.734,1294.69C925.633,1297.67 925.55,1300.24 925.55,1300.24C925.55,1300.24 925.46,1300.01 925.298,1299.61L925.316,1303.97L922.288,1314.08L913.656,1325.15L902.501,1331.56C888.015,1337.23 813.177,1354.34 797.303,1353.53L787.092,1351.71L778.771,1347.76L769.23,1338.43L764.427,1327.7C762.67,1320.68 668.747,1122.42 667.115,1115.92C656.526,1073.76 670.496,1052.62 683.213,1043.05L691.835,1037.91L700.708,1034.85L713.212,1033.45L724.262,1034.57C738.466,1037.32 754.246,1045.93 765.567,1056.95C775.914,1067.03 792.156,1092.9 808.268,1121ZM915.896,1276.22C915.896,1276.22 915.895,1276.22 915.894,1276.22L915.896,1276.22ZM812.232,1237.41L805.499,1244.14C802.787,1241.43 798.788,1235.89 793.952,1228.39C793.324,1229.28 792.884,1229.92 792.884,1229.92C792.884,1229.92 793.017,1229.01 793.261,1227.31C788.763,1220.27 783.581,1211.62 778.063,1202.01C792.169,1232.26 806.467,1262.92 816.213,1284.14L860.402,1274.18C860.849,1260.65 861.433,1242.54 862.02,1222.71C861.241,1227.04 860.46,1231.04 859.685,1234.65C855.55,1253.91 848.355,1266 844.586,1269.77L812.232,1237.41ZM859.728,1294.3C857.412,1304.99 860.842,1314.48 869.24,1322.87L861.922,1311.76L859.723,1302.65L859.584,1298.77C859.592,1298.44 859.641,1296.89 859.728,1294.3ZM824.497,1302.36C826.832,1307.59 828.238,1310.9 828.439,1311.7C827.626,1308.45 826.35,1305.32 824.497,1302.36Z" style="fill:rgb(17,24,39);"/>
                    </g>
                    <g transform="matrix(1,0,0,1,111.021,-370.782)">
                        <path d="M227.629,690.08C226.287,680.844 226.745,672.525 228.301,665.346L231.397,655.34L236.339,645.924L243.15,637.516L251.679,630.603L261.557,625.64L272.24,622.92L283.13,622.503L293.713,624.232C303.102,626.708 313.238,631.944 322.69,641.206C323.186,636.827 324.099,632.767 325.306,629.066L330.098,618.305L337.286,608.615L346.794,600.686L358.191,595.266C379.511,588.297 414.997,594.471 434.149,641.954C436.315,647.325 440.681,657.354 445.985,669.319C449.426,656.089 455.433,645.943 461.858,639.005L475.711,628.242L484.661,624.596L494.789,622.855L505.438,623.546L515.613,626.755L524.454,632.013L531.594,638.603C539.605,647.566 547.611,663.372 548.679,688.45C549.283,702.655 550.339,743.262 555.446,777.778C557.556,792.045 563.61,811.276 564.333,813.548C593.43,842.977 682.589,947.626 614.023,1061.35C610.431,1072.62 599.612,1100.51 567.27,1123.04C538.685,1142.95 490.96,1160.1 410.379,1150.05C308.015,1137.28 245.025,1060.26 230.577,1016.92L228.499,1007.8L228.192,998.833L230.325,986.727L234.388,976.52C240.048,965.227 250.96,952.499 265.799,940.166C271.635,935.316 278.142,930.439 285.062,925.618C253.79,890.89 207.754,816.569 176.847,769.992C170.157,759.912 166.778,750.958 165.264,743.519L164.162,733.421L165.205,722.699L168.097,713.751L172.882,705.484L179.209,698.55L186.483,693.313L196.052,689.141L205.53,687.213L223.366,688.39L227.629,690.08Z" style="fill:rgb(17,24,39);"/>
                    </g>
                </g>
                <g transform="matrix(1,0,0,1,4168.27,91.7167)">
                    <g transform="matrix(1,0,0,1,46.2108,-448.905)">
                        <path d="M817.579,1379.63C810.357,1380.36 766.256,1343.39 785.14,1337.09C787.572,1336.28 954.006,1294.23 980.483,1319.08C982.101,1320.6 1012.47,1332.24 991.441,1398.78C979.184,1437.56 940.511,1563.26 929.341,1568.85C900.063,1583.49 721.789,1570.37 714.486,1569.46C704.504,1568.21 680.956,1589.62 612.563,1363.07C609.341,1352.39 659.771,1251.76 739.941,1272.46C755.112,1276.38 798.349,1321.02 789.292,1327.54C774.079,1338.5 784.773,1330.23 770.499,1339.75C760.889,1346.16 786.883,1367.55 788.228,1375.05C792.995,1401.63 767.851,1395.68 759.978,1387C744.876,1370.36 713.131,1321.29 709.192,1325.23C708.911,1325.51 695.433,1319.33 701.948,1332.55C705.268,1339.28 744.431,1390.9 747.529,1393.06C753.477,1397.2 750.3,1431.32 716.526,1425.6C703.566,1423.4 655.369,1353.91 652.868,1356.12C639.65,1367.76 695.8,1436.58 706.188,1438.64C769.923,1451.3 757.919,1396.48 759.611,1400.43C766.851,1417.31 791.297,1405.66 806.675,1386.5C809.512,1382.96 860.698,1423.09 901.593,1408.33C911.409,1404.78 920.976,1383.65 920.012,1381.72C910.924,1363.55 829.011,1378.49 817.579,1379.63Z" style="fill:rgb(249,250,251);"/>
                    </g>
                    <g transform="matrix(1,0,0,1,48.2298,-445.876)">
                        <path d="M830.949,1219.95C816.9,1205.9 764.809,1102.26 742.551,1080.59C723.742,1062.27 685.39,1053.25 699.112,1107.88C700.745,1114.38 794.676,1312.67 796.433,1319.7C797.869,1325.44 894.925,1301.9 892.567,1299.55C892.506,1299.48 900.172,1087.39 896.557,1073.47C887.712,1039.41 849.886,1047.74 847.109,1077.14C844.528,1104.46 840.665,1210.23 830.949,1219.95Z" style="fill:rgb(249,250,251);"/>
                    </g>
                    <g transform="matrix(1,0,0,1,111.021,-370.782)">
                        <path d="M319.112,912.96C290.591,890.172 238.328,802.976 204.336,751.751C183.407,720.212 213.212,711.296 229.811,728.694C245.704,745.35 319.218,831.159 327.139,830.709C338.768,830.049 278.61,739.935 262.901,695.69C250.034,659.449 280.293,641.35 302.896,668.344C336.142,708.048 381.303,792.549 392.673,789.725C402.073,787.39 360.002,669.427 358.104,664.052C344.272,624.871 384.347,606.678 403.553,654.294C414.978,682.62 462.271,802.414 466.001,776.298C472.753,729.035 472.946,721.686 476.306,686.862C480.009,648.474 513.656,641.406 515.718,689.853C516.764,714.437 519.295,815.162 540.003,835.868C563.781,859.643 645.846,949.669 583.715,1047.63C582.731,1049.19 567.032,1136.34 414.462,1117.31C328.174,1106.55 274.053,1043.02 261.875,1006.49C248.944,967.695 402.565,896.709 414.558,891.912C419.756,889.833 430.403,884.948 436.009,883.079C478.938,868.77 441.44,954.202 411.176,966.411C408.575,967.461 383.578,986.328 362.822,989.074C340.718,991.999 352.795,1018.69 377.056,1016.18C439.883,1009.69 469.582,921.845 474.723,905.944C484.369,876.108 453.755,857.019 437.766,858.367C395.214,861.957 336.286,895.786 319.112,912.96Z" style="fill:rgb(249,250,251);"/>
                    </g>
                </g>
            </g>
        </g>
    </g>
</svg>
