<?xml version="1.0" encoding="UTF-8" standalone="no"?>
<!DOCTYPE svg PUBLIC "-//W3C//DTD SVG 1.1//EN" "http://www.w3.org/Graphics/SVG/1.1/DTD/svg11.dtd">
<svg width="100%" height="100%" viewBox="0 0 1741 1260" version="1.1" xmlns="http://www.w3.org/2000/svg" xmlns:xlink="http://www.w3.org/1999/xlink" xml:space="preserve" xmlns:serif="http://www.serif.com/" style="fill-rule:evenodd;clip-rule:evenodd;stroke-linejoin:round;stroke-miterlimit:2;">
    <g transform="matrix(1,0,0,1,-2596.27,-1709.54)">
        <g id="Red-Hands-Arrow" serif:id="Red Hands Arrow" transform="matrix(3.45185,0,0,10.8217,4147.37,2693.5)">
            <rect x="-449.351" y="-90.924" width="504.18" height="116.349" style="fill:none;"/>
            <clipPath id="_clip1">
                <rect x="-449.351" y="-90.924" width="504.18" height="116.349"/>
            </clipPath>
            <g clip-path="url(#_clip1)">
                <g transform="matrix(0.289699,0,0,0.0924068,-522.081,-94.5371)">
                    <g transform="matrix(1,0,0,1,46.2108,-448.905)">
                        <path d="M1002.8,1294.84L1000.7,1293.15C1001.7,1293.9 1002.69,1294.67 1003.06,1295.03L1002.8,1294.84ZM1002.8,1294.84L1012,1302.23C1015.38,1305.78 1018.93,1310.31 1022.11,1316.13C1030.42,1331.32 1038.63,1358.94 1022.9,1408.72C1012.88,1440.44 985.461,1528.98 969.094,1566.06C964.982,1575.38 961.071,1582.29 958.138,1586.24L952.281,1592.75L944.095,1598.36C933.128,1603.84 905.649,1608 871.981,1608.6C811.939,1609.65 728.929,1603.82 712.896,1602.43L712.517,1602.45L699.5,1601.49L687.755,1597.45C681.114,1594.21 672.582,1588.43 662.941,1575.94C646.336,1554.43 620.032,1501.96 580.98,1372.6L579.465,1363.61L579.937,1355.29C581.028,1348.07 585.714,1334.06 595.061,1318.16C619.456,1276.65 675.259,1221.68 748.19,1240.52C756.048,1242.55 769.385,1250.03 782.285,1261.38C794.274,1271.93 806.289,1285.55 813.685,1296.6C844.871,1289.8 889.13,1281.33 924.871,1278.94C946.806,1277.48 966.005,1278.52 978.994,1282.13L993.167,1287.84L1002.8,1294.84ZM1000.7,1293.15C999.431,1292.19 998.158,1291.25 998.158,1291.25C998.158,1291.25 998.606,1291.52 998.885,1291.69L1000.7,1293.15Z" style="fill:rgb(46,46,46);"/>
                    </g>
                    <g transform="matrix(1,0,0,1,48.2298,-445.876)">
                        <path d="M805.828,1138.71C809.807,1110.04 813.379,1083.4 814.264,1074.04C814.608,1070.39 815.231,1066.91 816.086,1063.61L819.502,1053.78L824.396,1044.81L830.602,1036.91L837.938,1030.23L846.233,1024.91L855.329,1021.06L865.067,1018.82L875.248,1018.37L885.581,1019.86L895.665,1023.41L905.018,1028.95L913.187,1036.27L919.867,1044.98C923.395,1050.54 926.42,1057.22 928.488,1065.18C929.359,1068.53 930.473,1080.44 930.514,1097.78C930.637,1149.91 926.671,1266.9 925.734,1294.69C925.633,1297.67 925.55,1300.24 925.55,1300.24C925.55,1300.24 925.46,1300.01 925.298,1299.61L925.316,1303.97L922.288,1314.08L913.656,1325.15L902.501,1331.56C888.015,1337.23 813.177,1354.34 797.303,1353.53L787.092,1351.71L778.771,1347.76L769.23,1338.43L764.427,1327.7C762.67,1320.68 668.747,1122.42 667.115,1115.92C656.526,1073.76 670.496,1052.62 683.213,1043.05L691.835,1037.91L700.708,1034.85L713.212,1033.45L724.262,1034.57C738.466,1037.32 754.246,1045.93 765.567,1056.95C778.355,1069.4 793.446,1103.81 805.828,1138.71ZM915.896,1276.22C915.896,1276.22 915.895,1276.22 915.894,1276.22L915.896,1276.22ZM798.961,1224.14L791.745,1231.36C801.001,1251.23 809.642,1269.83 816.213,1284.14L860.402,1274.18C860.849,1260.65 861.433,1242.54 862.02,1222.71C861.241,1227.04 860.46,1231.04 859.685,1234.65C855.55,1253.91 848.355,1266 844.586,1269.77L798.961,1224.14ZM859.728,1294.3C857.412,1304.99 860.842,1314.48 869.24,1322.87L861.922,1311.76L859.723,1302.65L859.584,1298.77C859.592,1298.44 859.641,1296.89 859.728,1294.3ZM824.497,1302.36C826.832,1307.59 828.238,1310.9 828.439,1311.7C827.626,1308.45 826.35,1305.32 824.497,1302.36Z" style="fill:rgb(46,46,46);"/>
                    </g>
                    <g transform="matrix(1,0,0,1,111.021,-370.782)">
                        <path d="M227.629,690.08C226.287,680.844 226.745,672.525 228.301,665.346L231.397,655.34L236.339,645.924L243.15,637.516L251.679,630.603L261.557,625.64L272.24,622.92L283.13,622.503L293.713,624.232C303.102,626.708 313.238,631.944 322.69,641.206C323.186,636.827 324.099,632.767 325.306,629.066L330.098,618.305L337.286,608.615L346.794,600.686L358.191,595.266C379.511,588.297 414.997,594.471 434.149,641.954C436.315,647.325 440.681,657.354 445.985,669.319C449.426,656.089 455.433,645.943 461.858,639.005L475.711,628.242L484.661,624.596L494.789,622.855L505.438,623.546L515.613,626.755L524.454,632.013L531.594,638.603C539.605,647.566 547.611,663.372 548.679,688.45C549.283,702.655 550.339,743.262 555.446,777.778C557.556,792.045 563.61,811.276 564.333,813.548C593.43,842.977 682.589,947.626 614.023,1061.35C610.431,1072.62 599.612,1100.51 567.27,1123.04C538.685,1142.95 490.96,1160.1 410.379,1150.05C308.015,1137.28 245.025,1060.26 230.577,1016.92L228.499,1007.8L228.192,998.833L230.325,986.727L234.388,976.52C240.048,965.227 250.96,952.499 265.799,940.166C271.635,935.316 278.142,930.439 285.062,925.618C253.79,890.89 207.754,816.569 176.847,769.992C170.157,759.912 166.778,750.958 165.264,743.519L164.162,733.421L165.205,722.699L168.097,713.751L172.882,705.484L179.209,698.55L186.483,693.313L196.052,689.141L205.53,687.213L223.366,688.39L227.629,690.08Z" style="fill:rgb(46,46,46);"/>
                    </g>
                </g>
                <g transform="matrix(0.289699,0,0,0.0924068,-522.081,-94.5371)">
                    <g transform="matrix(1,0,0,1,46.2108,-448.905)">
                        <path d="M817.579,1379.63C810.357,1380.36 766.256,1343.39 785.14,1337.09C787.572,1336.28 954.006,1294.23 980.483,1319.08C982.101,1320.6 1012.47,1332.24 991.441,1398.78C979.184,1437.56 940.511,1563.26 929.341,1568.85C900.063,1583.49 721.789,1570.37 714.486,1569.46C704.504,1568.21 680.956,1589.62 612.563,1363.07C609.341,1352.39 659.771,1251.76 739.941,1272.46C755.112,1276.38 798.349,1321.02 789.292,1327.54C774.079,1338.5 784.773,1330.23 770.499,1339.75C760.889,1346.16 786.883,1367.55 788.228,1375.05C792.995,1401.63 767.851,1395.68 759.978,1387C744.876,1370.36 713.131,1321.29 709.192,1325.23C708.911,1325.51 695.433,1319.33 701.948,1332.55C705.268,1339.28 744.431,1390.9 747.529,1393.06C753.477,1397.2 750.3,1431.32 716.526,1425.6C703.566,1423.4 655.369,1353.91 652.868,1356.12C639.65,1367.76 695.8,1436.58 706.188,1438.64C769.923,1451.3 757.919,1396.48 759.611,1400.43C766.851,1417.31 791.297,1405.66 806.675,1386.5C809.512,1382.96 860.698,1423.09 901.593,1408.33C911.409,1404.78 920.976,1383.65 920.012,1381.72C910.924,1363.55 829.011,1378.49 817.579,1379.63Z" style="fill:rgb(250,250,250);"/>
                    </g>
                    <g transform="matrix(1,0,0,1,48.2298,-445.876)">
                        <path d="M803.152,1219.95C789.103,1205.9 764.809,1102.26 742.551,1080.59C723.742,1062.27 685.39,1053.25 699.112,1107.88C700.745,1114.38 794.676,1312.67 796.433,1319.7C797.869,1325.44 894.925,1301.9 892.567,1299.55C892.506,1299.48 900.172,1087.39 896.557,1073.47C887.712,1039.41 849.886,1047.74 847.109,1077.14C844.528,1104.46 840.665,1210.23 830.949,1219.95" style="fill:rgb(250,250,250);"/>
                    </g>
                    <g transform="matrix(1,0,0,1,111.021,-370.782)">
                        <path d="M319.112,912.96C290.591,890.172 238.328,802.976 204.336,751.751C183.407,720.212 213.212,711.296 229.811,728.694C245.704,745.35 319.218,831.159 327.139,830.709C338.768,830.049 278.61,739.935 262.901,695.69C250.034,659.449 280.293,641.35 302.896,668.344C336.142,708.048 381.303,792.549 392.673,789.725C402.073,787.39 360.002,669.427 358.104,664.052C344.272,624.871 384.347,606.678 403.553,654.294C414.978,682.62 462.271,802.414 466.001,776.298C472.753,729.035 472.946,721.686 476.306,686.862C480.009,648.474 513.656,641.406 515.718,689.853C516.764,714.437 519.295,815.162 540.003,835.868C563.781,859.643 645.846,949.669 583.715,1047.63C582.731,1049.19 567.032,1136.34 414.462,1117.31C328.174,1106.55 274.053,1043.02 261.875,1006.49C248.944,967.695 402.565,896.709 414.558,891.912C419.756,889.833 430.403,884.948 436.009,883.079C478.938,868.77 441.44,954.202 411.176,966.411C408.575,967.461 383.578,986.328 362.822,989.074C340.718,991.999 352.795,1018.69 377.056,1016.18C439.883,1009.69 469.582,921.845 474.723,905.944C484.369,876.108 453.755,857.019 437.766,858.367C395.214,861.957 336.286,895.786 319.112,912.96Z" style="fill:rgb(250,250,250);"/>
                    </g>
                </g>
                <g transform="matrix(0.289699,0,0,0.0924068,-522.081,-94.5371)">
                    <g transform="matrix(1,0,0,1,46.2108,-448.905)">
                        <path d="M1002.8,1294.84L1000.7,1293.15C1001.7,1293.9 1002.69,1294.67 1003.06,1295.03L1002.8,1294.84ZM1002.8,1294.84L1012,1302.23C1015.38,1305.78 1018.93,1310.31 1022.11,1316.13C1030.42,1331.32 1038.63,1358.94 1022.9,1408.72C1012.88,1440.44 985.461,1528.98 969.094,1566.06C964.982,1575.38 961.071,1582.29 958.138,1586.24L952.281,1592.75L944.095,1598.36C933.128,1603.84 905.649,1608 871.981,1608.6C811.939,1609.65 728.929,1603.82 712.896,1602.43L712.517,1602.45L699.5,1601.49L687.755,1597.45C681.114,1594.21 672.582,1588.43 662.941,1575.94C646.336,1554.43 620.032,1501.96 580.98,1372.6L579.465,1363.61L579.937,1355.29C581.028,1348.07 585.714,1334.06 595.061,1318.16C619.456,1276.65 675.259,1221.68 748.19,1240.52C756.048,1242.55 769.385,1250.03 782.285,1261.38C794.274,1271.93 806.289,1285.55 813.685,1296.6C844.871,1289.8 889.13,1281.33 924.871,1278.94C946.806,1277.48 966.005,1278.52 978.994,1282.13L993.167,1287.84L1002.8,1294.84ZM1000.7,1293.15C999.431,1292.19 998.158,1291.25 998.158,1291.25C998.158,1291.25 998.606,1291.52 998.885,1291.69L1000.7,1293.15Z" style="fill:rgb(46,46,46);"/>
                    </g>
                    <g transform="matrix(1,0,0,1,48.2298,-445.876)">
                        <path d="M805.828,1138.71C809.807,1110.04 813.379,1083.4 814.264,1074.04C814.608,1070.39 815.231,1066.91 816.086,1063.61L819.502,1053.78L824.396,1044.81L830.602,1036.91L837.938,1030.23L846.233,1024.91L855.329,1021.06L865.067,1018.82L875.248,1018.37L885.581,1019.86L895.665,1023.41L905.018,1028.95L913.187,1036.27L919.867,1044.98C923.395,1050.54 926.42,1057.22 928.488,1065.18C929.359,1068.53 930.473,1080.44 930.514,1097.78C930.637,1149.91 926.671,1266.9 925.734,1294.69C925.633,1297.67 925.55,1300.24 925.55,1300.24C925.55,1300.24 925.46,1300.01 925.298,1299.61L925.316,1303.97L922.288,1314.08L913.656,1325.15L902.501,1331.56C888.015,1337.23 813.177,1354.34 797.303,1353.53L787.092,1351.71L778.771,1347.76L769.23,1338.43L764.427,1327.7C762.67,1320.68 668.747,1122.42 667.115,1115.92C656.526,1073.76 670.496,1052.62 683.213,1043.05L691.835,1037.91L700.708,1034.85L713.212,1033.45L724.262,1034.57C738.466,1037.32 754.246,1045.93 765.567,1056.95C778.355,1069.4 793.446,1103.81 805.828,1138.71ZM915.896,1276.22C915.896,1276.22 915.895,1276.22 915.894,1276.22L915.896,1276.22ZM798.961,1224.14L791.745,1231.36C801.001,1251.23 809.642,1269.83 816.213,1284.14L860.402,1274.18C860.849,1260.65 861.433,1242.54 862.02,1222.71C861.241,1227.04 860.46,1231.04 859.685,1234.65C855.55,1253.91 848.355,1266 844.586,1269.77L798.961,1224.14ZM859.728,1294.3C857.412,1304.99 860.842,1314.48 869.24,1322.87L861.922,1311.76L859.723,1302.65L859.584,1298.77C859.592,1298.44 859.641,1296.89 859.728,1294.3ZM824.497,1302.36C826.832,1307.59 828.238,1310.9 828.439,1311.7C827.626,1308.45 826.35,1305.32 824.497,1302.36Z" style="fill:rgb(46,46,46);"/>
                    </g>
                    <g transform="matrix(1,0,0,1,111.021,-370.782)">
                        <path d="M227.629,690.08C226.287,680.844 226.745,672.525 228.301,665.346L231.397,655.34L236.339,645.924L243.15,637.516L251.679,630.603L261.557,625.64L272.24,622.92L283.13,622.503L293.713,624.232C303.102,626.708 313.238,631.944 322.69,641.206C323.186,636.827 324.099,632.767 325.306,629.066L330.098,618.305L337.286,608.615L346.794,600.686L358.191,595.266C379.511,588.297 414.997,594.471 434.149,641.954C436.315,647.325 440.681,657.354 445.985,669.319C449.426,656.089 455.433,645.943 461.858,639.005L475.711,628.242L484.661,624.596L494.789,622.855L505.438,623.546L515.613,626.755L524.454,632.013L531.594,638.603C539.605,647.566 547.611,663.372 548.679,688.45C549.283,702.655 550.339,743.262 555.446,777.778C557.556,792.045 563.61,811.276 564.333,813.548C593.43,842.977 682.589,947.626 614.023,1061.35C610.431,1072.62 599.612,1100.51 567.27,1123.04C538.685,1142.95 490.96,1160.1 410.379,1150.05C308.015,1137.28 245.025,1060.26 230.577,1016.92L228.499,1007.8L228.192,998.833L230.325,986.727L234.388,976.52C240.048,965.227 250.96,952.499 265.799,940.166C271.635,935.316 278.142,930.439 285.062,925.618C253.79,890.89 207.754,816.569 176.847,769.992C170.157,759.912 166.778,750.958 165.264,743.519L164.162,733.421L165.205,722.699L168.097,713.751L172.882,705.484L179.209,698.55L186.483,693.313L196.052,689.141L205.53,687.213L223.366,688.39L227.629,690.08Z" style="fill:rgb(46,46,46);"/>
                    </g>
                </g>
                <g transform="matrix(0.289699,0,0,0.0924068,-522.081,-94.5371)">
                    <g transform="matrix(1,0,0,1,46.2108,-448.905)">
                        <path d="M817.579,1379.63C810.357,1380.36 766.256,1343.39 785.14,1337.09C787.572,1336.28 954.006,1294.23 980.483,1319.08C982.101,1320.6 1012.47,1332.24 991.441,1398.78C979.184,1437.56 940.511,1563.26 929.341,1568.85C900.063,1583.49 721.789,1570.37 714.486,1569.46C704.504,1568.21 680.956,1589.62 612.563,1363.07C609.341,1352.39 659.771,1251.76 739.941,1272.46C755.112,1276.38 798.349,1321.02 789.292,1327.54C774.079,1338.5 784.773,1330.23 770.499,1339.75C760.889,1346.16 786.883,1367.55 788.228,1375.05C792.995,1401.63 767.851,1395.68 759.978,1387C744.876,1370.36 713.131,1321.29 709.192,1325.23C708.911,1325.51 695.433,1319.33 701.948,1332.55C705.268,1339.28 744.431,1390.9 747.529,1393.06C753.477,1397.2 750.3,1431.32 716.526,1425.6C703.566,1423.4 655.369,1353.91 652.868,1356.12C639.65,1367.76 695.8,1436.58 706.188,1438.64C769.923,1451.3 757.919,1396.48 759.611,1400.43C766.851,1417.31 791.297,1405.66 806.675,1386.5C809.512,1382.96 860.698,1423.09 901.593,1408.33C911.409,1404.78 920.976,1383.65 920.012,1381.72C910.924,1363.55 829.011,1378.49 817.579,1379.63Z" style="fill:rgb(250,250,250);"/>
                    </g>
                    <g transform="matrix(1,0,0,1,48.2298,-445.876)">
                        <path d="M803.152,1219.95C789.103,1205.9 764.809,1102.26 742.551,1080.59C723.742,1062.27 685.39,1053.25 699.112,1107.88C700.745,1114.38 794.676,1312.67 796.433,1319.7C797.869,1325.44 894.925,1301.9 892.567,1299.55C892.506,1299.48 900.172,1087.39 896.557,1073.47C887.712,1039.41 849.886,1047.74 847.109,1077.14C844.528,1104.46 840.665,1210.23 830.949,1219.95" style="fill:rgb(250,250,250);"/>
                    </g>
                    <g transform="matrix(1,0,0,1,111.021,-370.782)">
                        <path d="M319.112,912.96C290.591,890.172 238.328,802.976 204.336,751.751C183.407,720.212 213.212,711.296 229.811,728.694C245.704,745.35 319.218,831.159 327.139,830.709C338.768,830.049 278.61,739.935 262.901,695.69C250.034,659.449 280.293,641.35 302.896,668.344C336.142,708.048 381.303,792.549 392.673,789.725C402.073,787.39 360.002,669.427 358.104,664.052C344.272,624.871 384.347,606.678 403.553,654.294C414.978,682.62 462.271,802.414 466.001,776.298C472.753,729.035 472.946,721.686 476.306,686.862C480.009,648.474 513.656,641.406 515.718,689.853C516.764,714.437 519.295,815.162 540.003,835.868C563.781,859.643 645.846,949.669 583.715,1047.63C582.731,1049.19 567.032,1136.34 414.462,1117.31C328.174,1106.55 274.053,1043.02 261.875,1006.49C248.944,967.695 402.565,896.709 414.558,891.912C419.756,889.833 430.403,884.948 436.009,883.079C478.938,868.77 441.44,954.202 411.176,966.411C408.575,967.461 383.578,986.328 362.822,989.074C340.718,991.999 352.795,1018.69 377.056,1016.18C439.883,1009.69 469.582,921.845 474.723,905.944C484.369,876.108 453.755,857.019 437.766,858.367C395.214,861.957 336.286,895.786 319.112,912.96Z" style="fill:rgb(250,250,250);"/>
                    </g>
                </g>
                <g id="Red-Arrow" serif:id="Red Arrow" transform="matrix(0.133215,0,0,0.0426205,-164.036,-35.8678)">
                    <g transform="matrix(1,0,0,1,-1735.42,-1275)">
                        <clipPath id="_clip2">
                            <rect x="0" y="0" width="3470.83" height="2550"/>
                        </clipPath>
                        <g clip-path="url(#_clip2)">
                            <g id="Purple-Arrow-1" serif:id="Purple Arrow 1" transform="matrix(1.1556,0,0,1.33665,223.333,840.075)">
                                <g>
                                    <rect x="-193.265" y="-628.49" width="3000.42" height="1905.41" style="fill:none;"/>
                                    <g id="Arrow-2-Red" serif:id="Arrow 2 Red" transform="matrix(3.60565,0,0,3.11723,-1292.95,-6384.37)">
                                        <g transform="matrix(1,0,0,1,-49.2119,-71.925)">
                                            <path d="M398.142,2086.54C436.218,2081.35 658.354,2123.54 729.552,2137.74C734.208,2138.66 692.469,1947.38 698.681,1948.94C726.964,1956.01 1099.98,2140.27 1108.28,2151.34C1108.64,2151.83 786.622,2483.04 778.256,2491.4C765.671,2503.99 741.6,2307.41 736.552,2295.3C733.752,2288.58 418.272,2401.4 416.217,2376.13C413.773,2346.08 369.298,2090.47 398.142,2086.54Z" style="fill:rgb(126,58,242);"/>
                                            <path d="M717.472,2124.73C713.576,2102.73 704.817,2053.51 697.966,2016.91C693.621,1993.69 689.939,1972.97 688.432,1960.97C687.587,1954.24 687.566,1949.6 687.927,1947.7L688.583,1945.42L689.818,1943.12L693.152,1940.01L697.206,1938.6L701.207,1938.83C723.972,1944.52 968.805,2064.12 1070.06,2117.5C1090.67,2128.37 1105.42,2136.56 1111.37,2140.55C1112.92,2141.58 1114.05,2142.46 1114.77,2143.1L1116.61,2145.09L1118.37,2148.77L1118.69,2151.4L1118.41,2153.76L1117.63,2155.92L1116.11,2158.22C1115.54,2158.88 1112.3,2162.3 1106.86,2167.97C1054.86,2222.08 793.154,2491.24 785.621,2498.77L783.701,2500.35L781.055,2501.7L776.701,2502.39L773.573,2501.88L771.076,2500.79L768.921,2499.26L766.796,2496.99C764.634,2494.2 761.987,2488.3 759.562,2479.89C748.323,2440.92 734.542,2336.83 728.753,2306.89C693.024,2315.78 568.262,2358.09 488.381,2378.63C465.223,2384.59 445.708,2388.73 432.915,2389.89C426.043,2390.51 420.722,2390.23 417.243,2389.33L412.467,2387.39L409.121,2384.65L406.861,2381.11L405.835,2376.98C403.87,2352.81 374.986,2183.54 378.306,2114.78C379.002,2100.37 381.46,2089.76 384.908,2084.3L387.315,2081.18L390.703,2078.4L393.56,2077.01L396.736,2076.22C432.951,2071.29 634.045,2108.41 717.472,2124.73ZM425.935,2369.18C428.705,2369.16 432.69,2369.02 436.276,2368.53C448.16,2366.91 464.403,2363.29 483.192,2358.45C567.642,2336.74 702.059,2290.87 729.528,2285.34C732.056,2284.83 733.98,2284.62 735.228,2284.59L739.24,2285.11L743.257,2287.29L744.85,2288.99L746.167,2291.29C750.231,2301.04 766.731,2429.57 779.579,2474.12C779.656,2474.38 779.735,2474.65 779.816,2474.91C827.141,2426.39 1044.92,2202.36 1091.84,2153.53C1091.88,2153.49 1091.92,2153.45 1091.95,2153.41C1084.42,2149.06 1072.87,2142.53 1060.35,2135.93C970.721,2088.68 767.382,1988.61 709.878,1964.26C711.627,1976.13 714.817,1993.7 718.444,2013.07C727.775,2062.93 740.009,2124.27 740.322,2135.62L740.169,2138.74L739.544,2141.19L737.139,2144.98L735.361,2146.44L732.917,2147.62L730.118,2148.14L727.515,2147.95C658.555,2134.2 446.601,2093.52 402.222,2096.6C401.458,2099.65 399.485,2108.13 399.116,2115.78C396.034,2179.59 421.177,2330.82 425.935,2369.18Z" style="fill:rgb(17,24,39);"/>
                                        </g>
                                        <g transform="matrix(0.96923,0,0,0.99431,-393.175,1060.42)">
                                            <g id="Red-Arrow---Light" serif:id="Red Arrow - Light">
                                                <path d="M1265.64,919.567C1277.01,923.356 1413.82,1033.77 1412.12,1034.65C1406.39,1037.62 1305.02,1202.31 1336.84,1171.45C1469.08,1043.28 1482.29,1029.11 1480.42,1026.03C1478.77,1023.3 1277.75,922.595 1265.64,919.567Z" style="fill:rgb(172,148,250);"/>
                                            </g>
                                        </g>
                                    </g>
                                </g>
                            </g>
                        </g>
                    </g>
                </g>
                <g transform="matrix(0.289699,0,0,0.0924068,-522.081,-94.5371)">
                    <g transform="matrix(1,0,0,1,46.2108,-448.905)">
                        <path d="M1000.7,1293.15C999.431,1292.19 998.158,1291.25 998.158,1291.25C998.158,1291.25 998.606,1291.52 998.885,1291.69L1000.7,1293.15ZM1002.8,1294.84L1012,1302.23C1015.38,1305.78 1018.93,1310.31 1022.11,1316.13C1030.42,1331.32 1038.63,1358.94 1022.9,1408.72C1012.88,1440.44 985.461,1528.98 969.094,1566.06C964.982,1575.38 961.071,1582.29 958.138,1586.24L952.281,1592.75L944.095,1598.36C933.128,1603.84 905.649,1608 871.981,1608.6C811.939,1609.65 728.929,1603.82 712.896,1602.43L712.517,1602.45L699.5,1601.49L687.755,1597.45C681.114,1594.21 672.582,1588.43 662.941,1575.94C646.336,1554.43 620.032,1501.96 580.98,1372.6L579.465,1363.61L579.937,1355.29C581.028,1348.07 585.714,1334.06 595.061,1318.16C619.456,1276.65 675.259,1221.68 748.19,1240.52C756.048,1242.55 769.385,1250.03 782.285,1261.38C794.274,1271.93 806.289,1285.55 813.685,1296.6C844.871,1289.8 889.13,1281.33 924.871,1278.94C946.806,1277.48 966.005,1278.52 978.994,1282.13L993.167,1287.84L1002.8,1294.84ZM1002.8,1294.84L1000.7,1293.15C1001.7,1293.9 1002.69,1294.67 1003.06,1295.03L1002.8,1294.84Z" style="fill:rgb(46,46,46);"/>
                    </g>
                    <g transform="matrix(1,0,0,1,48.2298,-445.876)">
                        <path d="M805.828,1138.71C809.807,1110.04 813.379,1083.4 814.264,1074.04C814.608,1070.39 815.231,1066.91 816.086,1063.61L819.502,1053.78L824.396,1044.81L830.602,1036.91L837.938,1030.23L846.233,1024.91L855.329,1021.06L865.067,1018.82L875.248,1018.37L885.581,1019.86L895.665,1023.41L905.018,1028.95L913.187,1036.27L919.867,1044.98C923.395,1050.54 926.42,1057.22 928.488,1065.18C929.359,1068.53 930.473,1080.44 930.514,1097.78C930.637,1149.91 926.671,1266.9 925.734,1294.69C925.633,1297.67 925.55,1300.24 925.55,1300.24C925.55,1300.24 925.46,1300.01 925.298,1299.61L925.316,1303.97L922.288,1314.08L913.656,1325.15L902.501,1331.56C888.015,1337.23 813.177,1354.34 797.303,1353.53L787.092,1351.71L778.771,1347.76L769.23,1338.43L764.427,1327.7C762.67,1320.68 668.747,1122.42 667.115,1115.92C656.526,1073.76 670.496,1052.62 683.213,1043.05L691.835,1037.91L700.708,1034.85L713.212,1033.45L724.262,1034.57C738.466,1037.32 754.246,1045.93 765.567,1056.95C778.355,1069.4 793.446,1103.81 805.828,1138.71ZM915.896,1276.22C915.896,1276.22 915.895,1276.22 915.894,1276.22L915.896,1276.22ZM798.961,1224.14L791.745,1231.36C801.001,1251.23 809.642,1269.83 816.213,1284.14L860.402,1274.18C860.849,1260.65 861.433,1242.54 862.02,1222.71C861.241,1227.04 860.46,1231.04 859.685,1234.65C855.55,1253.91 848.355,1266 844.586,1269.77L798.961,1224.14ZM859.728,1294.3C857.412,1304.99 860.842,1314.48 869.24,1322.87L861.922,1311.76L859.723,1302.65L859.584,1298.77C859.592,1298.44 859.641,1296.89 859.728,1294.3ZM824.497,1302.36C826.832,1307.59 828.238,1310.9 828.439,1311.7C827.626,1308.45 826.35,1305.32 824.497,1302.36Z" style="fill:rgb(46,46,46);"/>
                    </g>
                    <g transform="matrix(1,0,0,1,111.021,-370.782)">
                        <path d="M227.629,690.08C226.287,680.844 226.745,672.525 228.301,665.346L231.397,655.34L236.339,645.924L243.15,637.516L251.679,630.603L261.557,625.64L272.24,622.92L283.13,622.503L293.713,624.232C303.102,626.708 313.238,631.944 322.69,641.206C323.186,636.827 324.099,632.767 325.306,629.066L330.098,618.305L337.286,608.615L346.794,600.686L358.191,595.266C379.511,588.297 414.997,594.471 434.149,641.954C436.315,647.325 440.681,657.354 445.985,669.319C449.426,656.089 455.433,645.943 461.858,639.005L475.711,628.242L484.661,624.596L494.789,622.855L505.438,623.546L515.613,626.755L524.454,632.013L531.594,638.603C539.605,647.566 547.611,663.372 548.679,688.45C549.283,702.655 550.339,743.262 555.446,777.778C557.556,792.045 563.61,811.276 564.333,813.548C593.43,842.977 682.589,947.626 614.023,1061.35C610.431,1072.62 599.612,1100.51 567.27,1123.04C538.685,1142.95 490.96,1160.1 410.379,1150.05C308.015,1137.28 245.025,1060.26 230.577,1016.92L228.499,1007.8L228.192,998.833L230.325,986.727L234.388,976.52C240.048,965.227 250.96,952.499 265.799,940.166C271.635,935.316 278.142,930.439 285.062,925.618C253.79,890.89 207.754,816.569 176.847,769.992C170.157,759.912 166.778,750.958 165.264,743.519L164.162,733.421L165.205,722.699L168.097,713.751L172.882,705.484L179.209,698.55L186.483,693.313L196.052,689.141L205.53,687.213L223.366,688.39L227.629,690.08Z" style="fill:rgb(46,46,46);"/>
                    </g>
                </g>
                <g transform="matrix(0.289699,0,0,0.0924068,-522.081,-94.5371)">
                    <g transform="matrix(1,0,0,1,46.2108,-448.905)">
                        <path d="M817.579,1379.63C810.357,1380.36 766.256,1343.39 785.14,1337.09C787.572,1336.28 954.006,1294.23 980.483,1319.08C982.101,1320.6 1012.47,1332.24 991.441,1398.78C979.184,1437.56 940.511,1563.26 929.341,1568.85C900.063,1583.49 721.789,1570.37 714.486,1569.46C704.504,1568.21 680.956,1589.62 612.563,1363.07C609.341,1352.39 659.771,1251.76 739.941,1272.46C755.112,1276.38 798.349,1321.02 789.292,1327.54C774.079,1338.5 784.773,1330.23 770.499,1339.75C760.889,1346.16 786.883,1367.55 788.228,1375.05C792.995,1401.63 767.851,1395.68 759.978,1387C744.876,1370.36 713.131,1321.29 709.192,1325.23C708.911,1325.51 695.433,1319.33 701.948,1332.55C705.268,1339.28 744.431,1390.9 747.529,1393.06C753.477,1397.2 750.3,1431.32 716.526,1425.6C703.566,1423.4 655.369,1353.91 652.868,1356.12C639.65,1367.76 695.8,1436.58 706.188,1438.64C769.923,1451.3 757.919,1396.48 759.611,1400.43C766.851,1417.31 791.297,1405.66 806.675,1386.5C809.512,1382.96 860.698,1423.09 901.593,1408.33C911.409,1404.78 920.976,1383.65 920.012,1381.72C910.924,1363.55 829.011,1378.49 817.579,1379.63Z" style="fill:rgb(250,250,250);"/>
                    </g>
                    <g transform="matrix(1,0,0,1,48.2298,-445.876)">
                        <path d="M803.152,1219.95C789.103,1205.9 764.809,1102.26 742.551,1080.59C723.742,1062.27 685.39,1053.25 699.112,1107.88C700.745,1114.38 794.676,1312.67 796.433,1319.7C797.869,1325.44 894.925,1301.9 892.567,1299.55C892.506,1299.48 900.172,1087.39 896.557,1073.47C887.712,1039.41 849.886,1047.74 847.109,1077.14C844.528,1104.46 840.665,1210.23 830.949,1219.95" style="fill:rgb(250,250,250);"/>
                    </g>
                    <g transform="matrix(1,0,0,1,111.021,-370.782)">
                        <path d="M319.112,912.96C290.591,890.172 238.328,802.976 204.336,751.751C183.407,720.212 213.212,711.296 229.811,728.694C245.704,745.35 319.218,831.159 327.139,830.709C338.768,830.049 278.61,739.935 262.901,695.69C250.034,659.449 280.293,641.35 302.896,668.344C336.142,708.048 381.303,792.549 392.673,789.725C402.073,787.39 360.002,669.427 358.104,664.052C344.272,624.871 384.347,606.678 403.553,654.294C414.978,682.62 462.271,802.414 466.001,776.298C472.753,729.035 472.946,721.686 476.306,686.862C480.009,648.474 513.656,641.406 515.718,689.853C516.764,714.437 519.295,815.162 540.003,835.868C563.781,859.643 645.846,949.669 583.715,1047.63C582.731,1049.19 567.032,1136.34 414.462,1117.31C328.174,1106.55 274.053,1043.02 261.875,1006.49C248.944,967.695 402.565,896.709 414.558,891.912C419.756,889.833 430.403,884.948 436.009,883.079C478.938,868.77 441.44,954.202 411.176,966.411C408.575,967.461 383.578,986.328 362.822,989.074C340.718,991.999 352.795,1018.69 377.056,1016.18C439.883,1009.69 469.582,921.845 474.723,905.944C484.369,876.108 453.755,857.019 437.766,858.367C395.214,861.957 336.286,895.786 319.112,912.96Z" style="fill:rgb(250,250,250);"/>
                    </g>
                </g>
            </g>
        </g>
    </g>
</svg>
