<?xml version="1.0" encoding="UTF-8" standalone="no"?>
<!DOCTYPE svg PUBLIC "-//W3C//DTD SVG 1.1//EN" "http://www.w3.org/Graphics/SVG/1.1/DTD/svg11.dtd">
<svg width="100%" height="100%" viewBox="0 0 2087 1173" version="1.1" xmlns="http://www.w3.org/2000/svg" xmlns:xlink="http://www.w3.org/1999/xlink" xml:space="preserve" xmlns:serif="http://www.serif.com/" style="fill-rule:evenodd;clip-rule:evenodd;stroke-linejoin:round;stroke-miterlimit:2;">
    <g transform="matrix(1,0,0,1,-4413.73,-113.287)">
        <g id="Logo---Final" serif:id="Logo - Final" transform="matrix(5.12305,0,0,3.32757,-27247.8,-1519.12)">
            <rect x="6180.2" y="490.572" width="407.287" height="352.46" style="fill:none;"/>
            <clipPath id="_clip1">
                <rect x="6180.2" y="490.572" width="407.287" height="352.46"/>
            </clipPath>
            <g clip-path="url(#_clip1)">
                <g id="Red-Arrow" serif:id="Red Arrow" transform="matrix(0.0897588,0,0,0.138608,6405.8,666.877)">
                    <g transform="matrix(1,0,0,1,-1735.42,-1275)">
                        <clipPath id="_clip2">
                            <rect x="0" y="0" width="3470.83" height="2550"/>
                        </clipPath>
                        <g clip-path="url(#_clip2)">
                            <g id="Purple-Arrow-1" serif:id="Purple Arrow 1" transform="matrix(1.1556,0,0,1.33665,223.333,840.075)">
                                <g>
                                    <rect x="-193.265" y="-628.49" width="3000.42" height="1905.41" style="fill:none;"/>
                                    <g id="Arrow-2-Red" serif:id="Arrow 2 Red" transform="matrix(3.60565,0,0,3.11723,-1292.95,-6384.37)">
                                        <g transform="matrix(1,0,0,1,-49.2119,-71.925)">
                                            <path d="M398.142,2086.54C436.218,2081.35 658.354,2123.54 729.552,2137.74C734.208,2138.66 692.469,1947.38 698.681,1948.94C726.964,1956.01 1099.98,2140.27 1108.28,2151.34C1108.64,2151.83 786.622,2483.04 778.256,2491.4C765.671,2503.99 741.6,2307.41 736.552,2295.3C733.752,2288.58 418.272,2401.4 416.217,2376.13C413.773,2346.08 369.298,2090.47 398.142,2086.54Z" style="fill:rgb(126,58,242);"/>
                                            <path d="M717.472,2124.73C713.576,2102.73 704.817,2053.51 697.966,2016.91C693.621,1993.69 689.939,1972.97 688.432,1960.97C687.587,1954.24 687.566,1949.6 687.927,1947.7L688.583,1945.42L689.818,1943.12L693.152,1940.01L697.206,1938.6L701.207,1938.83C723.972,1944.52 968.805,2064.12 1070.06,2117.5C1090.67,2128.37 1105.42,2136.56 1111.37,2140.55C1112.92,2141.58 1114.05,2142.46 1114.77,2143.1L1116.61,2145.09L1118.37,2148.77L1118.69,2151.4L1118.41,2153.76L1117.63,2155.92L1116.11,2158.22C1115.54,2158.88 1112.3,2162.3 1106.86,2167.97C1054.86,2222.08 793.154,2491.24 785.621,2498.77L783.701,2500.35L781.055,2501.7L776.701,2502.39L773.573,2501.88L771.076,2500.79L768.921,2499.26L766.796,2496.99C764.634,2494.2 761.987,2488.3 759.562,2479.89C748.323,2440.92 734.542,2336.83 728.753,2306.89C693.024,2315.78 568.262,2358.09 488.381,2378.63C465.223,2384.59 445.708,2388.73 432.915,2389.89C426.043,2390.51 420.722,2390.23 417.243,2389.33L412.467,2387.39L409.121,2384.65L406.861,2381.11L405.835,2376.98C403.87,2352.81 374.986,2183.54 378.306,2114.78C379.002,2100.37 381.46,2089.76 384.908,2084.3L387.315,2081.18L390.703,2078.4L393.56,2077.01L396.736,2076.22C432.951,2071.29 634.045,2108.41 717.472,2124.73ZM425.935,2369.18C428.705,2369.16 432.69,2369.02 436.276,2368.53C448.16,2366.91 464.403,2363.29 483.192,2358.45C567.642,2336.74 702.059,2290.87 729.528,2285.34C732.056,2284.83 733.98,2284.62 735.228,2284.59L739.24,2285.11L743.257,2287.29L744.85,2288.99L746.167,2291.29C750.231,2301.04 766.731,2429.57 779.579,2474.12C779.656,2474.38 779.735,2474.65 779.816,2474.91C827.141,2426.39 1044.92,2202.36 1091.84,2153.53C1091.88,2153.49 1091.92,2153.45 1091.95,2153.41C1084.42,2149.06 1072.87,2142.53 1060.35,2135.93C970.721,2088.68 767.382,1988.61 709.878,1964.26C711.627,1976.13 714.817,1993.7 718.444,2013.07C727.775,2062.93 740.009,2124.27 740.322,2135.62L740.169,2138.74L739.544,2141.19L737.139,2144.98L735.361,2146.44L732.917,2147.62L730.118,2148.14L727.515,2147.95C658.555,2134.2 446.601,2093.52 402.222,2096.6C401.458,2099.65 399.485,2108.13 399.116,2115.78C396.034,2179.59 421.177,2330.82 425.935,2369.18Z" style="fill:rgb(17,24,39);"/>
                                        </g>
                                        <g transform="matrix(0.96923,0,0,0.99431,-393.175,1060.42)">
                                            <g id="Red-Arrow---Light" serif:id="Red Arrow - Light">
                                                <path d="M1265.64,919.567C1277.01,923.356 1413.82,1033.77 1412.12,1034.65C1406.39,1037.62 1305.02,1202.31 1336.84,1171.45C1469.08,1043.28 1482.29,1029.11 1480.42,1026.03C1478.77,1023.3 1277.75,922.595 1265.64,919.567Z" style="fill:rgb(172,148,250);"/>
                                            </g>
                                        </g>
                                    </g>
                                </g>
                            </g>
                        </g>
                    </g>
                </g>
                <g id="Logo---Final1" serif:id="Logo - Final" transform="matrix(0.195196,0,0,0.30052,5318.66,456.527)">
                    <g transform="matrix(1,0,0,1,4150.71,213.634)">
                        <clipPath id="_clip3">
                            <path d="M834.766,232.263C838.222,230.831 843.075,229.165 849.379,227.422C857.501,225.175 865.712,224.061 874.007,224.061C888.753,224.061 900.959,226.705 910.789,231.093L917.421,234.779C918.131,228.478 918.841,222.132 919.551,215.742C920.734,205.098 927.01,195.69 936.383,190.51C949.935,183.021 964.052,179.394 978.674,179.394C993.416,179.394 1006.07,182.962 1016.83,189.337L1027.96,198.224L1036.27,210.131L1040.75,223.135L1042,235.719C1042,241.479 1041.47,249.6 1040.29,260.073C1039.26,269.288 1037.88,279.77 1036.15,291.518C1034.42,303.243 1032.41,315.312 1030.11,327.726C1027.83,340.051 1025.43,352.034 1022.92,363.674C1020.3,375.815 1017.62,386.645 1014.88,396.167C1011.76,407.021 1008.75,415.401 1006.04,421.37C1004.08,425.693 1001.2,429.54 997.614,432.649C991.603,437.859 982.176,443.186 968.552,446.992C958.121,449.907 947.385,451.376 936.34,451.376C921.405,451.376 908.63,448.968 897.915,444.747C893.684,443.08 889.973,441.196 886.742,439.183L879.161,433.037C873.193,438.087 864.638,442.974 852.967,446.67C843.278,449.738 832.634,451.376 821.007,451.376C807.263,451.376 794.629,449.238 783.071,445.177C773.596,441.848 766.299,437.499 760.819,432.787L754.084,425.839L748.499,417.139C748.317,416.775 748.142,416.408 747.973,416.037C745.294,410.143 742.102,401.139 738.619,388.948C735.606,378.402 732.472,366.233 729.227,352.441C726.019,338.81 722.983,324.606 720.119,309.829C717.274,295.147 714.713,280.751 712.437,266.638C710.098,252.134 708.35,239.032 707.18,227.335C706.153,217.062 709.993,206.901 717.558,199.876C722.904,194.913 730.176,190.055 739.72,185.855C749.382,181.604 759.8,179.394 771.007,179.394C787,179.394 799.958,183.577 810.269,190.521L820.081,199.057L827.378,209.371C830.71,215.433 833.247,222.646 834.578,231.136L834.766,232.263ZM1123.21,406.709L1113.96,406.709C1113.4,408.863 1112.87,410.978 1112.35,413.053C1111.41,416.781 1110.48,420.391 1109.55,423.886C1106.62,434.871 1098.24,443.574 1087.38,446.917C1083.98,447.963 1080.19,449.012 1076.01,450.058C1070.2,451.509 1063.32,452.376 1055.34,452.376C1035.66,452.376 1021.26,447.468 1011.42,440.579L1002.15,432.399L994.766,421.709L990.35,409.551L989.016,397.385C989.016,391.254 989.867,385.12 991.619,378.989C992.441,376.111 993.364,372.727 994.383,368.857C996.287,361.267 999.114,351.508 1002.89,339.587C1006.49,328.221 1010.49,315.953 1014.88,302.786C1019.26,289.644 1023.64,276.783 1028.02,264.203C1032.39,251.642 1036.37,240.371 1039.96,230.39C1043.61,220.237 1046.35,212.765 1048.18,207.974C1050.85,200.97 1055.82,195.083 1062.28,191.283C1067.94,187.952 1076.47,184.431 1088.12,181.434C1098.68,178.72 1109.09,177.394 1119.34,177.394C1134.77,177.394 1148.47,179.821 1160.5,184.296C1164.65,185.836 1168.39,187.637 1171.76,189.642L1182.3,197.58L1191.05,208.276L1196.83,220.878L1196.45,219.738C1200.6,231.505 1205.05,245.289 1209.78,261.093C1214.37,276.415 1219.06,292.407 1223.87,309.071C1228.66,325.676 1233.29,341.835 1237.75,357.548C1242.24,373.389 1246.17,387.6 1249.54,400.183C1252.47,411.113 1249.59,422.781 1241.92,431.096L1229.88,440.869C1226.26,443.077 1222.08,445.136 1217.26,446.942C1208.66,450.166 1198.5,452.043 1186.67,452.043C1165.04,452.043 1150.76,445.745 1142.38,438.461L1135.17,430.895L1129.65,422.591C1127.12,418.016 1124.92,412.741 1123.21,406.709ZM1419.89,342.617C1420.53,343.45 1421.16,344.278 1421.78,345.102C1426.43,351.224 1430.68,356.894 1434.54,362.109C1439.13,368.318 1442.74,373.736 1445.44,378.325C1450.07,386.186 1451.23,395.611 1448.66,404.361C1446.51,411.674 1443.39,418.147 1439.47,423.847L1432.43,432.373L1424.06,439.53C1412.46,447.847 1399.45,452.043 1385.01,452.043C1365.94,452.043 1351.87,446.351 1341.89,437.925C1338.91,435.408 1336,432.592 1333.18,429.46C1329.16,437.982 1321.56,444.612 1312.02,447.214C1308.62,448.141 1303.38,449.172 1296.27,450.099C1289.77,450.947 1283.13,451.376 1276.34,451.376C1254.09,451.376 1239.18,444.89 1230.2,436.973L1222.46,428.304L1217.19,418.777C1214.06,411.446 1212.02,402.149 1212.02,390.719L1212.02,232.719L1215.06,215.083L1219.58,206.046L1226.18,198.066L1236.68,190.097C1240.06,188.084 1243.8,186.286 1247.93,184.762C1248.08,184.71 1248.22,184.659 1248.36,184.608C1257.92,181.233 1269.01,178.685 1281.67,177.138C1292.92,175.763 1304.92,175.061 1317.67,175.061C1357.9,175.061 1387.76,185.184 1408.16,202.237C1431.32,221.594 1443.33,247.293 1443.33,279.719C1443.33,300.469 1437.37,318.978 1425.63,335.306C1423.82,337.831 1421.9,340.268 1419.89,342.617ZM1669.66,314.385C1669.66,344.952 1663.07,370.233 1651.07,390.515C1638.31,412.086 1620.48,428.289 1597.55,439.074C1576.75,448.853 1552.5,454.043 1524.67,454.043C1516.25,454.043 1505.77,453.455 1493.26,452.216C1478.93,450.797 1466.11,447.865 1454.76,443.609L1454.57,443.539C1448.8,441.335 1443.79,438.656 1439.46,435.638L1426.24,422.987L1417.65,406.196L1415.02,388.385L1415.02,232.719L1418.06,215.083L1422.58,206.046L1429.18,198.066L1439.68,190.097C1443.06,188.084 1446.8,186.286 1450.93,184.762C1451.33,184.616 1451.73,184.479 1452.13,184.348C1463.93,180.505 1476.42,177.94 1489.59,176.705C1501.41,175.598 1511.99,175.061 1521.34,175.061C1549.6,175.061 1574.2,180.039 1595.26,189.412C1618.76,199.875 1637.06,215.849 1650.25,237.228C1662.74,257.475 1669.66,283.082 1669.66,314.385ZM1539,293.482L1539,335.893C1543.2,331.36 1543.68,324.219 1543.68,315.385C1543.68,307.748 1542.96,301.298 1540.54,296.207C1540.08,295.227 1539.57,294.312 1539,293.482Z" clip-rule="nonzero"/>
                        </clipPath>
                        <g clip-path="url(#_clip3)">
                            <g transform="matrix(1,-0,-0,1,-4150.71,-213.634)">
                                <path d="M4985.47,445.897C4988.93,444.466 4993.78,442.799 5000.09,441.056C5008.21,438.809 5016.42,437.695 5024.72,437.695C5039.46,437.695 5051.67,440.339 5061.5,444.728L5068.13,448.414C5068.84,442.112 5069.55,435.766 5070.26,429.376C5071.44,418.732 5077.72,409.324 5087.09,404.144C5100.64,396.655 5114.76,393.029 5129.38,393.029C5144.12,393.029 5156.78,396.596 5167.53,402.971L5178.67,411.858L5186.97,423.765L5191.45,436.769L5192.7,449.353C5192.7,455.113 5192.18,463.234 5191,473.708C5189.96,482.922 5188.58,493.404 5186.85,505.153C5185.13,516.877 5183.12,528.946 5180.82,541.36C5178.54,553.685 5176.14,565.668 5173.63,577.308C5171.01,589.45 5168.32,600.279 5165.59,609.802C5162.47,620.655 5159.46,629.035 5156.75,635.004C5154.78,639.327 5151.91,643.174 5148.32,646.284C5142.31,651.493 5132.88,656.82 5119.26,660.627C5108.83,663.541 5098.09,665.01 5087.05,665.01C5072.11,665.01 5059.34,662.602 5048.62,658.381C5044.39,656.714 5040.68,654.83 5037.45,652.817L5029.87,646.671C5023.9,651.721 5015.35,656.608 5003.67,660.304C4993.98,663.373 4983.34,665.01 4971.72,665.01C4957.97,665.01 4945.34,662.872 4933.78,658.812C4924.3,655.483 4917.01,651.133 4911.53,646.422L4904.79,639.473L4899.21,630.773C4899.03,630.409 4898.85,630.042 4898.68,629.671C4896,623.777 4892.81,614.773 4889.33,602.583C4886.31,592.036 4883.18,579.868 4879.93,566.076C4876.73,552.444 4873.69,538.24 4870.83,523.463C4867.98,508.782 4865.42,494.385 4863.15,480.273C4860.81,465.768 4859.06,452.666 4857.89,440.969C4856.86,430.696 4860.7,420.535 4868.27,413.511C4873.61,408.547 4880.88,403.689 4890.43,399.489C4900.09,395.238 4910.51,393.029 4921.72,393.029C4937.71,393.029 4950.66,397.211 4960.98,404.156L4970.79,412.691L4978.09,423.005C4981.42,429.068 4983.95,436.281 4985.29,444.771L4985.47,445.897Z" style="fill:rgb(17,24,39);"/>
                            </g>
                            <g transform="matrix(1,-0,-0,1,-4150.71,-213.634)">
                                <path d="M5273.91,620.344L5264.67,620.344C5264.11,622.498 5263.57,624.612 5263.05,626.687C5262.12,630.415 5261.19,634.026 5260.26,637.52C5257.33,648.505 5248.95,657.208 5238.08,660.551C5234.69,661.597 5230.9,662.646 5226.72,663.692C5220.91,665.143 5214.03,666.01 5206.05,666.01C5186.36,666.01 5171.97,661.102 5162.13,654.213L5152.86,646.033L5145.47,635.343L5141.06,623.185L5139.72,611.019C5139.72,604.888 5140.57,598.754 5142.33,592.623C5143.15,589.745 5144.07,586.361 5145.09,582.491C5146.99,574.901 5149.82,565.142 5153.6,553.222C5157.2,541.855 5161.19,529.588 5165.58,516.42C5169.96,503.278 5174.35,490.417 5178.73,477.837C5183.1,465.276 5187.08,454.005 5190.67,444.024C5194.32,433.871 5197.06,426.399 5198.89,421.608C5201.55,414.604 5206.53,408.717 5212.99,404.917C5218.65,401.586 5227.18,398.065 5238.83,395.068C5249.39,392.354 5259.8,391.029 5270.05,391.029C5285.48,391.029 5299.18,393.456 5311.21,397.93C5315.35,399.47 5319.1,401.271 5322.47,403.276L5333.01,411.214L5341.76,421.91L5347.54,434.512L5347.16,433.373C5351.31,445.139 5355.76,458.923 5360.49,474.727C5365.07,490.049 5369.77,506.042 5374.58,522.705C5379.37,539.31 5383.99,555.469 5388.45,571.182C5392.95,587.023 5396.88,601.234 5400.25,613.817C5403.18,624.747 5400.3,636.415 5392.62,644.73L5380.58,654.503C5376.97,656.711 5372.78,658.77 5367.97,660.576C5359.37,663.8 5349.2,665.677 5337.38,665.677C5315.75,665.677 5301.47,659.379 5293.08,652.095L5285.87,644.529L5280.36,636.225C5277.82,631.65 5275.63,626.375 5273.91,620.344Z" style="fill:rgb(17,24,39);"/>
                            </g>
                            <g transform="matrix(1,-0,-0,1,-4150.71,-213.634)">
                                <path d="M5570.6,556.252C5571.23,557.084 5571.86,557.912 5572.49,558.736C5577.14,564.859 5581.39,570.528 5585.24,575.743C5589.83,581.952 5593.45,587.37 5596.15,591.959C5600.78,599.82 5601.94,609.245 5599.36,617.995C5597.21,625.308 5594.1,631.781 5590.18,637.481L5583.14,646.007L5574.77,653.164C5563.17,661.481 5550.16,665.677 5535.72,665.677C5516.64,665.677 5502.57,659.985 5492.6,651.559C5489.62,649.043 5486.71,646.226 5483.89,643.094C5479.86,651.616 5472.27,658.246 5462.73,660.848C5459.33,661.775 5454.09,662.806 5446.98,663.733C5440.48,664.581 5433.83,665.01 5427.05,665.01C5404.8,665.01 5389.89,658.524 5380.91,650.608L5373.17,641.938L5367.9,632.411C5364.76,625.081 5362.72,615.783 5362.72,604.353L5362.72,446.353L5365.77,428.717L5370.29,419.681L5376.89,411.7L5387.39,403.731C5390.77,401.718 5394.51,399.92 5398.64,398.396C5398.78,398.344 5398.93,398.293 5399.07,398.243C5408.63,394.867 5419.72,392.319 5432.38,390.772C5443.63,389.397 5455.63,388.695 5468.38,388.695C5508.61,388.695 5538.46,398.818 5558.87,415.871C5582.03,435.228 5594.04,460.927 5594.04,493.353C5594.04,514.104 5588.07,532.612 5576.34,548.941C5574.52,551.465 5572.61,553.902 5570.6,556.252Z" style="fill:rgb(17,24,39);"/>
                            </g>
                            <g transform="matrix(1,-0,-0,1,-4150.71,-213.634)">
                                <path d="M5820.37,528.019C5820.37,558.586 5813.77,583.867 5801.78,604.15C5789.02,625.72 5771.19,641.923 5748.25,652.708C5727.45,662.487 5703.2,667.677 5675.38,667.677C5666.95,667.677 5656.48,667.089 5643.96,665.85C5629.63,664.431 5616.82,661.499 5605.46,657.243L5605.28,657.173C5599.51,654.969 5594.49,652.29 5590.16,649.272L5576.95,636.622L5568.36,619.83L5565.72,602.019L5565.72,446.353L5568.77,428.717L5573.29,419.681L5579.89,411.7L5590.39,403.731C5593.77,401.718 5597.51,399.92 5601.64,398.396C5602.04,398.251 5602.44,398.113 5602.83,397.983C5614.64,394.139 5627.12,391.575 5640.3,390.339C5652.11,389.232 5662.7,388.695 5672.05,388.695C5700.31,388.695 5724.91,393.673 5745.97,403.047C5769.47,413.509 5787.77,429.483 5800.96,450.862C5813.45,471.109 5820.37,496.716 5820.37,528.019ZM5689.7,507.116L5689.7,549.527C5693.9,544.994 5694.39,537.853 5694.39,529.019C5694.39,521.382 5693.67,514.932 5691.25,509.841C5690.78,508.861 5690.28,507.946 5689.7,507.116Z" style="fill:rgb(17,24,39);"/>
                            </g>
                        </g>
                    </g>
                    <g transform="matrix(1,0,0,1,3926.63,-53.6522)">
                        <clipPath id="_clip4">
                            <path d="M1443.01,813.31L1445.15,815.008L1452.23,823.929L1457.04,833.928L1459.58,844.066L1460.31,853.836L1460.31,922.502C1460.31,930.483 1459.23,937.196 1457.53,942.705L1450.26,957.345C1445.65,963.632 1438.67,970.131 1428.61,975.999L1428.36,976.146C1420.01,980.916 1407.99,985.45 1392.04,989.027C1377.74,992.236 1363.5,993.826 1349.32,993.826C1323.29,993.826 1299.66,989.197 1278.37,980.248C1254.66,970.279 1235.86,954.556 1221.97,933.107C1208.71,912.64 1201.33,886.455 1201.33,854.169C1201.33,823.701 1208.62,798.163 1222.11,777.271C1235.83,756.022 1254.26,739.913 1277.42,728.993C1299.07,718.789 1323.24,713.511 1349.99,713.511C1367.53,713.511 1382.74,715.562 1395.69,719.32C1412.18,724.107 1424.55,731.418 1433.41,740.106L1440.94,748.934L1446.83,759.39L1450.47,770.967L1451.65,782.836L1449.24,799.962L1443.01,813.31ZM1496.65,719.845L1606.65,719.845C1617.93,719.845 1628.43,725.607 1634.49,735.124C1637.32,739.565 1639.99,745.149 1642.21,752.014C1644.41,758.826 1645.65,766.42 1645.65,774.836C1645.65,784.497 1644.04,792.534 1641.53,799.062L1637.41,807.473L1631.35,815.446L1628.53,817.834C1630.1,821.023 1631.57,824.628 1632.88,828.68C1635.08,835.493 1636.31,843.087 1636.31,851.502C1636.31,861.238 1634.68,869.294 1632.15,875.794L1628.19,883.753C1631.16,886.05 1633.75,888.867 1635.82,892.124C1638.69,896.631 1641.45,902.485 1643.71,909.862C1645.84,916.832 1646.98,924.371 1646.98,932.502C1646.98,942.238 1645.35,950.294 1642.82,956.794L1638.6,965.274L1632.34,973.302L1623.74,980.386L1613.91,985.351L1603.78,988.043L1593.99,988.826L1496.65,988.826C1487.63,988.826 1479.58,987.341 1472.44,984.717L1460.83,978.991L1450.66,970.83L1442.5,960.657L1436.77,949.053C1434.15,941.916 1432.66,933.862 1432.66,924.836L1432.66,783.836C1432.66,774.809 1434.15,766.756 1436.77,759.618L1442.5,748.014L1450.66,737.841L1460.83,729.68L1472.44,723.954C1479.58,721.33 1487.63,719.845 1496.65,719.845ZM1799.32,719.845C1810.6,719.845 1821.1,725.607 1827.15,735.124C1830.02,739.631 1832.79,745.485 1835.04,752.862C1837.17,759.832 1838.31,767.371 1838.31,775.502C1838.31,785.218 1836.66,793.34 1834.07,799.984L1829.88,808.395L1823.83,816.301L1815.34,823.535L1805.44,828.746L1795.08,831.639L1784.99,832.493L1780.31,832.493L1780.31,954.502C1780.31,969.38 1770.36,982.416 1756,986.331C1752.6,987.258 1747.37,988.289 1740.26,989.216C1733.75,990.064 1727.11,990.493 1720.32,990.493C1698.07,990.493 1683.17,984.007 1674.18,976.091L1666.44,967.421L1661.17,957.894C1658.04,950.564 1656,941.266 1656,929.836L1656,832.493L1638.65,832.493C1627.38,832.493 1616.88,826.73 1610.82,817.214C1607.95,812.707 1605.19,806.852 1602.94,799.476C1600.81,792.506 1599.66,784.967 1599.66,776.836C1599.66,766.957 1601.32,758.778 1603.9,752.175L1608.17,743.611L1614.48,735.525L1623.01,728.464L1632.84,723.434L1643.06,720.661L1652.99,719.845L1799.32,719.845ZM1923,758.296L1923,752.169C1923,736.042 1934.66,722.278 1950.57,719.627C1953.36,719.161 1957.49,718.52 1962.96,717.705C1969.86,716.678 1976.53,716.178 1982.99,716.178C2004.04,716.178 2018.62,722.058 2027.88,729.635L2036.31,738.578L2041.94,748.483C2045.17,755.913 2047.31,765.525 2047.31,777.502L2047.31,954.502C2047.31,969.38 2037.36,982.416 2023,986.331C2019.6,987.258 2014.37,988.289 2007.26,989.216C2000.75,990.064 1994.11,990.493 1987.32,990.493C1965.07,990.493 1950.17,984.007 1941.18,976.091L1933.44,967.421L1928.17,957.894C1926.91,954.942 1925.83,951.672 1924.98,948.071L1924.98,954.502C1924.98,969.38 1915.02,982.416 1900.67,986.331C1897.27,987.258 1892.03,988.289 1884.92,989.216C1878.42,990.064 1871.78,990.493 1864.99,990.493C1842.74,990.493 1827.83,984.007 1818.85,976.091L1811.11,967.421L1805.84,957.894C1802.7,950.564 1800.66,941.266 1800.66,929.836L1800.66,752.169C1800.66,736.042 1812.32,722.278 1828.23,719.627C1831.03,719.161 1835.16,718.52 1840.63,717.705C1847.52,716.678 1854.2,716.178 1860.65,716.178C1881.35,716.178 1895.72,721.696 1904.83,728.73L1913.66,737.698L1919.51,747.714C1920.89,750.83 1922.08,754.352 1923,758.296ZM2088.66,719.845L2198.66,719.845C2209.93,719.845 2220.43,725.607 2226.49,735.124C2229.32,739.565 2231.99,745.149 2234.21,752.014C2236.41,758.826 2237.65,766.42 2237.65,774.836C2237.65,784.497 2236.04,792.534 2233.53,799.062L2229.41,807.473L2223.35,815.446L2220.53,817.834C2222.1,821.023 2223.57,824.628 2224.88,828.68C2227.08,835.493 2228.31,843.087 2228.31,851.502C2228.31,861.238 2226.68,869.294 2224.15,875.794L2220.19,883.753C2223.16,886.05 2225.75,888.867 2227.82,892.124C2230.69,896.631 2233.45,902.485 2235.71,909.862C2237.84,916.832 2238.98,924.371 2238.98,932.502C2238.98,942.238 2237.35,950.294 2234.82,956.794L2230.6,965.274L2224.34,973.302L2215.74,980.386L2205.91,985.351L2195.78,988.043L2185.99,988.826L2088.66,988.826C2079.63,988.826 2071.58,987.341 2064.44,984.717L2052.83,978.991L2042.66,970.83L2034.5,960.657L2028.77,949.053C2026.15,941.916 2024.66,933.862 2024.66,924.836L2024.66,783.836C2024.66,774.809 2026.15,766.756 2028.77,759.618L2034.5,748.014L2042.66,737.841L2052.83,729.68L2064.44,723.954C2071.58,721.33 2079.63,719.845 2088.66,719.845ZM2415.2,881.735C2415.84,882.567 2416.47,883.395 2417.1,884.219C2421.75,890.342 2426,896.011 2429.85,901.226C2434.44,907.435 2438.06,912.853 2440.76,917.442C2445.38,925.303 2446.55,934.728 2443.97,943.478C2441.82,950.791 2438.71,957.264 2434.78,962.964L2427.75,971.49L2419.38,978.647C2407.78,986.964 2394.77,991.16 2380.32,991.16C2361.25,991.16 2347.18,985.468 2337.2,977.042C2334.22,974.525 2331.32,971.709 2328.49,968.577C2324.47,977.099 2316.88,983.729 2307.34,986.331C2303.94,987.258 2298.7,988.289 2291.59,989.216C2285.09,990.064 2278.44,990.493 2271.66,990.493C2249.4,990.493 2234.5,984.007 2225.51,976.091L2217.78,967.421L2212.5,957.894C2209.37,950.564 2207.33,941.266 2207.33,929.836L2207.33,771.836L2210.37,754.2L2214.89,745.164L2221.5,737.183L2232,729.214C2235.37,727.201 2239.11,725.403 2243.25,723.879C2243.39,723.827 2243.53,723.776 2243.68,723.726C2253.24,720.35 2264.33,717.802 2276.99,716.255C2288.24,714.88 2300.24,714.178 2312.99,714.178C2353.22,714.178 2383.07,724.301 2403.48,741.354C2426.64,760.711 2438.65,786.41 2438.65,818.836C2438.65,839.586 2432.68,858.095 2420.95,874.424C2419.13,876.948 2417.22,879.385 2415.2,881.735Z" clip-rule="nonzero"/>
                        </clipPath>
                        <g clip-path="url(#_clip4)">
                            <g transform="matrix(1,-0,-0,1,-3926.63,53.6522)">
                                <path d="M5369.64,759.658L5371.78,761.355L5378.86,770.277L5383.67,780.276L5386.21,790.414L5386.94,800.183L5386.94,868.85C5386.94,876.83 5385.85,883.544 5384.15,889.053L5376.89,903.693C5372.28,909.98 5365.3,916.479 5355.24,922.347L5354.98,922.494C5346.64,927.263 5334.62,931.797 5318.67,935.374C5304.36,938.583 5290.12,940.174 5275.95,940.174C5249.92,940.174 5226.28,935.545 5205,926.596C5181.28,916.627 5162.49,900.904 5148.6,879.455C5135.34,858.988 5127.96,832.803 5127.96,800.517C5127.96,770.048 5135.24,744.511 5148.74,723.618C5162.46,702.369 5180.88,686.261 5204.05,675.341C5225.7,665.137 5249.86,659.859 5276.62,659.859C5294.15,659.859 5309.37,661.91 5322.31,665.667C5338.81,670.455 5351.18,677.765 5360.04,686.454L5367.57,695.282L5373.45,705.737L5377.1,717.315L5378.27,729.183L5375.87,746.31L5369.64,759.658Z" style="fill:rgb(17,24,39);"/>
                            </g>
                            <g transform="matrix(1,-0,-0,1,-3926.63,53.6522)">
                                <path d="M5423.28,666.193L5533.28,666.193C5544.56,666.193 5555.06,671.955 5561.12,681.471C5563.94,685.913 5566.62,691.497 5568.84,698.361C5571.04,705.174 5572.27,712.768 5572.27,721.183C5572.27,730.845 5570.67,738.882 5568.16,745.41L5564.04,753.821L5557.97,761.794L5555.16,764.182C5556.73,767.37 5558.19,770.976 5559.51,775.028C5561.71,781.84 5562.94,789.435 5562.94,797.85C5562.94,807.586 5561.31,815.642 5558.78,822.141L5554.82,830.1C5557.78,832.397 5560.38,835.215 5562.45,838.471C5565.32,842.979 5568.08,848.833 5570.33,856.21C5572.46,863.179 5573.61,870.719 5573.61,878.85C5573.61,888.586 5571.97,896.642 5569.45,903.141L5565.23,911.622L5558.97,919.65L5550.37,926.734L5540.53,931.699L5530.4,934.39L5520.62,935.174L5423.28,935.174C5414.26,935.174 5406.2,933.689 5399.07,931.065L5387.46,925.339L5377.29,917.178L5369.13,907.005L5363.4,895.401C5360.78,888.263 5359.29,880.21 5359.29,871.183L5359.29,730.183C5359.29,721.157 5360.78,713.103 5363.4,705.966L5369.13,694.362L5377.29,684.189L5387.46,676.028L5399.07,670.302C5406.2,667.678 5414.26,666.193 5423.28,666.193Z" style="fill:rgb(17,24,39);"/>
                            </g>
                            <g transform="matrix(1,-0,-0,1,-3926.63,53.6522)">
                                <path d="M5725.95,666.193C5737.23,666.193 5747.73,671.955 5753.78,681.471C5756.65,685.979 5759.41,691.833 5761.67,699.21C5763.8,706.179 5764.94,713.719 5764.94,721.85C5764.94,731.566 5763.29,739.688 5760.69,746.332L5756.51,754.743L5750.45,762.649L5741.96,769.883L5732.07,775.094L5721.7,777.987L5711.62,778.841L5706.94,778.841L5706.94,900.85C5706.94,915.727 5696.98,928.764 5682.63,932.678C5679.23,933.606 5673.99,934.636 5666.88,935.564C5660.38,936.412 5653.74,936.841 5646.95,936.841C5624.7,936.841 5609.79,930.355 5600.81,922.438L5593.07,913.769L5587.8,904.242C5584.67,896.911 5582.62,887.614 5582.62,876.183L5582.62,778.841L5565.28,778.841C5554,778.841 5543.51,773.078 5537.45,763.562C5534.58,759.054 5531.82,753.2 5529.57,745.824C5527.44,738.854 5526.29,731.315 5526.29,723.183C5526.29,713.305 5527.95,705.125 5530.52,698.523L5534.8,689.959L5541.11,681.873L5549.64,674.812L5559.47,669.782L5569.69,667.009L5579.62,666.193L5725.95,666.193Z" style="fill:rgb(17,24,39);"/>
                            </g>
                            <g transform="matrix(1,-0,-0,1,-3926.63,53.6522)">
                                <path d="M5849.62,704.644L5849.62,698.517C5849.62,682.39 5861.28,668.626 5877.19,665.975C5879.99,665.509 5884.12,664.867 5889.59,664.052C5896.48,663.026 5903.16,662.526 5909.62,662.526C5930.66,662.526 5945.25,668.406 5954.51,675.983L5962.94,684.926L5968.57,694.83C5971.8,702.261 5973.94,711.873 5973.94,723.85L5973.94,900.85C5973.94,915.727 5963.98,928.764 5949.63,932.678C5946.23,933.606 5940.99,934.636 5933.88,935.564C5927.38,936.412 5920.74,936.841 5913.95,936.841C5891.7,936.841 5876.79,930.355 5867.81,922.438L5860.07,913.769L5854.8,904.242C5853.54,901.29 5852.45,898.019 5851.61,894.419L5851.61,900.85C5851.61,915.727 5841.65,928.764 5827.3,932.678C5823.9,933.606 5818.66,934.636 5811.55,935.564C5805.05,936.412 5798.4,936.841 5791.62,936.841C5769.36,936.841 5754.46,930.355 5745.48,922.438L5737.74,913.769L5732.46,904.242C5729.33,896.911 5727.29,887.614 5727.29,876.183L5727.29,698.517C5727.29,682.39 5738.95,668.626 5754.86,665.975C5757.65,665.509 5761.78,664.867 5767.26,664.052C5774.15,663.026 5780.83,662.526 5787.28,662.526C5807.97,662.526 5822.35,668.043 5831.45,675.078L5840.29,684.046L5846.14,694.062C5847.52,697.178 5848.71,700.7 5849.62,704.644Z" style="fill:rgb(17,24,39);"/>
                            </g>
                            <g transform="matrix(1,-0,-0,1,-3926.63,53.6522)">
                                <path d="M6015.28,666.193L6125.28,666.193C6136.56,666.193 6147.06,671.955 6153.12,681.471C6155.94,685.913 6158.62,691.497 6160.84,698.361C6163.04,705.174 6164.27,712.768 6164.27,721.183C6164.27,730.845 6162.67,738.882 6160.16,745.41L6156.04,753.821L6149.97,761.794L6147.16,764.182C6148.73,767.37 6150.19,770.976 6151.51,775.028C6153.71,781.84 6154.94,789.435 6154.94,797.85C6154.94,807.586 6153.31,815.642 6150.78,822.141L6146.82,830.1C6149.78,832.397 6152.38,835.215 6154.45,838.471C6157.32,842.979 6160.08,848.833 6162.33,856.21C6164.46,863.179 6165.61,870.719 6165.61,878.85C6165.61,888.586 6163.97,896.642 6161.45,903.141L6157.23,911.622L6150.97,919.65L6142.37,926.734L6132.53,931.699L6122.4,934.39L6112.62,935.174L6015.28,935.174C6006.26,935.174 5998.2,933.689 5991.07,931.065L5979.46,925.339L5969.29,917.178L5961.13,907.005L5955.4,895.401C5952.78,888.263 5951.29,880.21 5951.29,871.183L5951.29,730.183C5951.29,721.157 5952.78,713.103 5955.4,705.966L5961.13,694.362L5969.29,684.189L5979.46,676.028L5991.07,670.302C5998.2,667.678 6006.26,666.193 6015.28,666.193Z" style="fill:rgb(17,24,39);"/>
                            </g>
                            <g transform="matrix(1,-0,-0,1,-3926.63,53.6522)">
                                <path d="M6341.83,828.082C6342.47,828.915 6343.1,829.743 6343.73,830.567C6348.37,836.689 6352.62,842.358 6356.48,847.574C6361.07,853.783 6364.69,859.201 6367.39,863.79C6372.01,871.651 6373.17,881.076 6370.6,889.826C6368.45,897.139 6365.34,903.612 6361.41,909.312L6354.38,917.838L6346.01,924.995C6334.41,933.312 6321.4,937.508 6306.95,937.508C6287.88,937.508 6273.81,931.816 6263.83,923.389C6260.85,920.873 6257.94,918.056 6255.12,914.924C6251.1,923.447 6243.5,930.077 6233.96,932.678C6230.56,933.606 6225.33,934.636 6218.22,935.564C6211.71,936.412 6205.07,936.841 6198.28,936.841C6176.03,936.841 6161.13,930.355 6152.14,922.438L6144.4,913.769L6139.13,904.242C6136,896.911 6133.96,887.614 6133.96,876.183L6133.96,718.183L6137,700.548L6141.52,691.511L6148.12,683.531L6158.63,675.562C6162,673.548 6165.74,671.75 6169.88,670.227C6170.02,670.175 6170.16,670.123 6170.3,670.073C6179.87,666.698 6190.96,664.15 6203.61,662.603C6214.86,661.228 6226.86,660.526 6239.62,660.526C6279.85,660.526 6309.7,670.648 6330.11,687.702C6353.27,707.058 6365.27,732.757 6365.27,765.183C6365.27,785.934 6359.31,804.443 6347.57,820.771C6345.76,823.296 6343.85,825.733 6341.83,828.082Z" style="fill:rgb(17,24,39);"/>
                            </g>
                        </g>
                    </g>
                    <g transform="matrix(1,0,0,1,4377.2,-1578.73)">
                        <g transform="matrix(1,0,0,1,-226.491,1792.36)">
                            <clipPath id="_clip5">
                                <path d="M834.766,232.263C838.222,230.831 843.075,229.165 849.379,227.422C857.501,225.175 865.712,224.061 874.007,224.061C888.753,224.061 900.959,226.705 910.789,231.093L917.421,234.779C918.131,228.478 918.841,222.132 919.551,215.742C920.734,205.098 927.01,195.69 936.383,190.51C949.935,183.021 964.052,179.394 978.674,179.394C993.416,179.394 1006.07,182.962 1016.83,189.337L1027.96,198.224L1036.27,210.131L1040.75,223.135L1042,235.719C1042,241.479 1041.47,249.6 1040.29,260.073C1039.26,269.288 1037.88,279.77 1036.15,291.518C1034.42,303.243 1032.41,315.312 1030.11,327.726C1027.83,340.051 1025.43,352.034 1022.92,363.674C1020.3,375.815 1017.62,386.645 1014.88,396.167C1011.76,407.021 1008.75,415.401 1006.04,421.37C1004.08,425.693 1001.2,429.54 997.614,432.649C991.603,437.859 982.176,443.186 968.552,446.992C958.121,449.907 947.385,451.376 936.34,451.376C921.405,451.376 908.63,448.968 897.915,444.747C893.684,443.08 889.973,441.196 886.742,439.183L879.161,433.037C873.193,438.087 864.638,442.974 852.967,446.67C843.278,449.738 832.634,451.376 821.007,451.376C807.263,451.376 794.629,449.238 783.071,445.177C773.596,441.848 766.299,437.499 760.819,432.787L754.084,425.839L748.499,417.139C748.317,416.775 748.142,416.408 747.973,416.037C745.294,410.143 742.102,401.139 738.619,388.948C735.606,378.402 732.472,366.233 729.227,352.441C726.019,338.81 722.983,324.606 720.119,309.829C717.274,295.147 714.713,280.751 712.437,266.638C710.098,252.134 708.35,239.032 707.18,227.335C706.153,217.062 709.993,206.901 717.558,199.876C722.904,194.913 730.176,190.055 739.72,185.855C749.382,181.604 759.8,179.394 771.007,179.394C787,179.394 799.958,183.577 810.269,190.521L820.081,199.057L827.378,209.371C830.71,215.433 833.247,222.646 834.578,231.136L834.766,232.263ZM1123.21,406.709L1113.96,406.709C1113.4,408.863 1112.87,410.978 1112.35,413.053C1111.41,416.781 1110.48,420.391 1109.55,423.886C1106.62,434.871 1098.24,443.574 1087.38,446.917C1083.98,447.963 1080.19,449.012 1076.01,450.058C1070.2,451.509 1063.32,452.376 1055.34,452.376C1035.66,452.376 1021.26,447.468 1011.42,440.579L1002.15,432.399L994.766,421.709L990.35,409.551L989.016,397.385C989.016,391.254 989.867,385.12 991.619,378.989C992.441,376.111 993.364,372.727 994.383,368.857C996.287,361.267 999.114,351.508 1002.89,339.587C1006.49,328.221 1010.49,315.953 1014.88,302.786C1019.26,289.644 1023.64,276.783 1028.02,264.203C1032.39,251.642 1036.37,240.371 1039.96,230.39C1043.61,220.237 1046.35,212.765 1048.18,207.974C1050.85,200.97 1055.82,195.083 1062.28,191.283C1067.94,187.952 1076.47,184.431 1088.12,181.434C1098.68,178.72 1109.09,177.394 1119.34,177.394C1134.77,177.394 1148.47,179.821 1160.5,184.296C1164.65,185.836 1168.39,187.637 1171.76,189.642L1182.3,197.58L1191.05,208.276L1196.83,220.878L1196.45,219.738C1200.6,231.505 1205.05,245.289 1209.78,261.093C1214.37,276.415 1219.06,292.407 1223.87,309.071C1228.66,325.676 1233.29,341.835 1237.75,357.548C1242.24,373.389 1246.17,387.6 1249.54,400.183C1252.47,411.113 1249.59,422.781 1241.92,431.096L1229.88,440.869C1226.26,443.077 1222.08,445.136 1217.26,446.942C1208.66,450.166 1198.5,452.043 1186.67,452.043C1165.04,452.043 1150.76,445.745 1142.38,438.461L1135.17,430.895L1129.65,422.591C1127.12,418.016 1124.92,412.741 1123.21,406.709ZM1419.89,342.617C1420.53,343.45 1421.16,344.278 1421.78,345.102C1426.43,351.224 1430.68,356.894 1434.54,362.109C1439.13,368.318 1442.74,373.736 1445.44,378.325C1450.07,386.186 1451.23,395.611 1448.66,404.361C1446.51,411.674 1443.39,418.147 1439.47,423.847L1432.43,432.373L1424.06,439.53C1412.46,447.847 1399.45,452.043 1385.01,452.043C1365.94,452.043 1351.87,446.351 1341.89,437.925C1338.91,435.408 1336,432.592 1333.18,429.46C1329.16,437.982 1321.56,444.612 1312.02,447.214C1308.62,448.141 1303.38,449.172 1296.27,450.099C1289.77,450.947 1283.13,451.376 1276.34,451.376C1254.09,451.376 1239.18,444.89 1230.2,436.973L1222.46,428.304L1217.19,418.777C1214.06,411.446 1212.02,402.149 1212.02,390.719L1212.02,232.719L1215.06,215.083L1219.58,206.046L1226.18,198.066L1236.68,190.097C1240.06,188.084 1243.8,186.286 1247.93,184.762C1248.08,184.71 1248.22,184.659 1248.36,184.608C1257.92,181.233 1269.01,178.685 1281.67,177.138C1292.92,175.763 1304.92,175.061 1317.67,175.061C1357.9,175.061 1387.76,185.184 1408.16,202.237C1431.32,221.594 1443.33,247.293 1443.33,279.719C1443.33,300.469 1437.37,318.978 1425.63,335.306C1423.82,337.831 1421.9,340.268 1419.89,342.617ZM1669.66,314.385C1669.66,344.952 1663.07,370.233 1651.07,390.515C1638.31,412.086 1620.48,428.289 1597.55,439.074C1576.75,448.853 1552.5,454.043 1524.67,454.043C1516.25,454.043 1505.77,453.455 1493.26,452.216C1478.93,450.797 1466.11,447.865 1454.76,443.609L1454.57,443.539C1448.8,441.335 1443.79,438.656 1439.46,435.638L1426.24,422.987L1417.65,406.196L1415.02,388.385L1415.02,232.719L1418.06,215.083L1422.58,206.046L1429.18,198.066L1439.68,190.097C1443.06,188.084 1446.8,186.286 1450.93,184.762C1451.33,184.616 1451.73,184.479 1452.13,184.348C1463.93,180.505 1476.42,177.94 1489.59,176.705C1501.41,175.598 1511.99,175.061 1521.34,175.061C1549.6,175.061 1574.2,180.039 1595.26,189.412C1618.76,199.875 1637.06,215.849 1650.25,237.228C1662.74,257.475 1669.66,283.082 1669.66,314.385ZM1539,293.482L1539,335.893C1543.2,331.36 1543.68,324.219 1543.68,315.385C1543.68,307.748 1542.96,301.298 1540.54,296.207C1540.08,295.227 1539.57,294.312 1539,293.482Z" clip-rule="nonzero"/>
                            </clipPath>
                            <g clip-path="url(#_clip5)">
                                <g transform="matrix(1,-0,-0,1,226.491,-1792.36)">
                                    <path d="M4985.47,445.897C4988.93,444.466 4993.78,442.799 5000.09,441.056C5008.21,438.809 5016.42,437.695 5024.72,437.695C5039.46,437.695 5051.67,440.339 5061.5,444.728L5068.13,448.414C5068.84,442.112 5069.55,435.766 5070.26,429.376C5071.44,418.732 5077.72,409.324 5087.09,404.144C5100.64,396.655 5114.76,393.029 5129.38,393.029C5144.12,393.029 5156.78,396.596 5167.53,402.971L5178.67,411.858L5186.97,423.765L5191.45,436.769L5192.7,449.353C5192.7,455.113 5192.18,463.234 5191,473.708C5189.96,482.922 5188.58,493.404 5186.85,505.153C5185.13,516.877 5183.12,528.946 5180.82,541.36C5178.54,553.685 5176.14,565.668 5173.63,577.308C5171.01,589.45 5168.32,600.279 5165.59,609.802C5162.47,620.655 5159.46,629.035 5156.75,635.004C5154.78,639.327 5151.91,643.174 5148.32,646.284C5142.31,651.493 5132.88,656.82 5119.26,660.627C5108.83,663.541 5098.09,665.01 5087.05,665.01C5072.11,665.01 5059.34,662.602 5048.62,658.381C5044.39,656.714 5040.68,654.83 5037.45,652.817L5029.87,646.671C5023.9,651.721 5015.35,656.608 5003.67,660.304C4993.98,663.373 4983.34,665.01 4971.72,665.01C4957.97,665.01 4945.34,662.872 4933.78,658.812C4924.3,655.483 4917.01,651.133 4911.53,646.422L4904.79,639.473L4899.21,630.773C4899.03,630.409 4898.85,630.042 4898.68,629.671C4896,623.777 4892.81,614.773 4889.33,602.583C4886.31,592.036 4883.18,579.868 4879.93,566.076C4876.73,552.444 4873.69,538.24 4870.83,523.463C4867.98,508.782 4865.42,494.385 4863.15,480.273C4860.81,465.768 4859.06,452.666 4857.89,440.969C4856.86,430.696 4860.7,420.535 4868.27,413.511C4873.61,408.547 4880.88,403.689 4890.43,399.489C4900.09,395.238 4910.51,393.029 4921.72,393.029C4937.71,393.029 4950.66,397.211 4960.98,404.156L4970.79,412.691L4978.09,423.005C4981.42,429.068 4983.95,436.281 4985.29,444.771L4985.47,445.897Z" style="fill:rgb(46,46,46);"/>
                                </g>
                                <g transform="matrix(1,-0,-0,1,226.491,-1792.36)">
                                    <path d="M5273.91,620.344L5264.67,620.344C5264.11,622.498 5263.57,624.612 5263.05,626.687C5262.12,630.415 5261.19,634.026 5260.26,637.52C5257.33,648.505 5248.95,657.208 5238.08,660.551C5234.69,661.597 5230.9,662.646 5226.72,663.692C5220.91,665.143 5214.03,666.01 5206.05,666.01C5186.36,666.01 5171.97,661.102 5162.13,654.213L5152.86,646.033L5145.47,635.343L5141.06,623.185L5139.72,611.019C5139.72,604.888 5140.57,598.754 5142.33,592.623C5143.15,589.745 5144.07,586.361 5145.09,582.491C5146.99,574.901 5149.82,565.142 5153.6,553.222C5157.2,541.855 5161.19,529.588 5165.58,516.42C5169.96,503.278 5174.35,490.417 5178.73,477.837C5183.1,465.276 5187.08,454.005 5190.67,444.024C5194.32,433.871 5197.06,426.399 5198.89,421.608C5201.55,414.604 5206.53,408.717 5212.99,404.917C5218.65,401.586 5227.18,398.065 5238.83,395.068C5249.39,392.354 5259.8,391.029 5270.05,391.029C5285.48,391.029 5299.18,393.456 5311.21,397.93C5315.35,399.47 5319.1,401.271 5322.47,403.276L5333.01,411.214L5341.76,421.91L5347.54,434.512L5347.16,433.373C5351.31,445.139 5355.76,458.923 5360.49,474.727C5365.07,490.049 5369.77,506.042 5374.58,522.705C5379.37,539.31 5383.99,555.469 5388.45,571.182C5392.95,587.023 5396.88,601.234 5400.25,613.817C5403.18,624.747 5400.3,636.415 5392.62,644.73L5380.58,654.503C5376.97,656.711 5372.78,658.77 5367.97,660.576C5359.37,663.8 5349.2,665.677 5337.38,665.677C5315.75,665.677 5301.47,659.379 5293.08,652.095L5285.87,644.529L5280.36,636.225C5277.82,631.65 5275.63,626.375 5273.91,620.344Z" style="fill:rgb(46,46,46);"/>
                                </g>
                                <g transform="matrix(1,-0,-0,1,226.491,-1792.36)">
                                    <path d="M5570.6,556.252C5571.23,557.084 5571.86,557.912 5572.49,558.736C5577.14,564.859 5581.39,570.528 5585.24,575.743C5589.83,581.952 5593.45,587.37 5596.15,591.959C5600.78,599.82 5601.94,609.245 5599.36,617.995C5597.21,625.308 5594.1,631.781 5590.18,637.481L5583.14,646.007L5574.77,653.164C5563.17,661.481 5550.16,665.677 5535.72,665.677C5516.64,665.677 5502.57,659.985 5492.6,651.559C5489.62,649.043 5486.71,646.226 5483.89,643.094C5479.86,651.616 5472.27,658.246 5462.73,660.848C5459.33,661.775 5454.09,662.806 5446.98,663.733C5440.48,664.581 5433.83,665.01 5427.05,665.01C5404.8,665.01 5389.89,658.524 5380.91,650.608L5373.17,641.938L5367.9,632.411C5364.76,625.081 5362.72,615.783 5362.72,604.353L5362.72,446.353L5365.77,428.717L5370.29,419.681L5376.89,411.7L5387.39,403.731C5390.77,401.718 5394.51,399.92 5398.64,398.396C5398.78,398.344 5398.93,398.293 5399.07,398.243C5408.63,394.867 5419.72,392.319 5432.38,390.772C5443.63,389.397 5455.63,388.695 5468.38,388.695C5508.61,388.695 5538.46,398.818 5558.87,415.871C5582.03,435.228 5594.04,460.927 5594.04,493.353C5594.04,514.104 5588.07,532.612 5576.34,548.941C5574.52,551.465 5572.61,553.902 5570.6,556.252Z" style="fill:rgb(46,46,46);"/>
                                </g>
                                <g transform="matrix(1,-0,-0,1,226.491,-1792.36)">
                                    <path d="M5820.37,528.019C5820.37,558.586 5813.77,583.867 5801.78,604.15C5789.02,625.72 5771.19,641.923 5748.25,652.708C5727.45,662.487 5703.2,667.677 5675.38,667.677C5666.95,667.677 5656.48,667.089 5643.96,665.85C5629.63,664.431 5616.82,661.499 5605.46,657.243L5605.28,657.173C5599.51,654.969 5594.49,652.29 5590.16,649.272L5576.95,636.622L5568.36,619.83L5565.72,602.019L5565.72,446.353L5568.77,428.717L5573.29,419.681L5579.89,411.7L5590.39,403.731C5593.77,401.718 5597.51,399.92 5601.64,398.396C5602.04,398.251 5602.44,398.113 5602.83,397.983C5614.64,394.139 5627.12,391.575 5640.3,390.339C5652.11,389.232 5662.7,388.695 5672.05,388.695C5700.31,388.695 5724.91,393.673 5745.97,403.047C5769.47,413.509 5787.77,429.483 5800.96,450.862C5813.45,471.109 5820.37,496.716 5820.37,528.019ZM5689.7,507.116L5689.7,549.527C5693.9,544.994 5694.39,537.853 5694.39,529.019C5694.39,521.382 5693.67,514.932 5691.25,509.841C5690.78,508.861 5690.28,507.946 5689.7,507.116Z" style="fill:rgb(46,46,46);"/>
                                </g>
                            </g>
                        </g>
                        <g transform="matrix(1,0,0,1,-450.571,1525.08)">
                            <clipPath id="_clip6">
                                <path d="M1443.01,813.31L1445.15,815.008L1452.23,823.929L1457.04,833.928L1459.58,844.066L1460.31,853.836L1460.31,922.502C1460.31,930.483 1459.23,937.196 1457.53,942.705L1450.26,957.345C1445.65,963.632 1438.67,970.131 1428.61,975.999L1428.36,976.146C1420.01,980.916 1407.99,985.45 1392.04,989.027C1377.74,992.236 1363.5,993.826 1349.32,993.826C1323.29,993.826 1299.66,989.197 1278.37,980.248C1254.66,970.279 1235.86,954.556 1221.97,933.107C1208.71,912.64 1201.33,886.455 1201.33,854.169C1201.33,823.701 1208.62,798.163 1222.11,777.271C1235.83,756.022 1254.26,739.913 1277.42,728.993C1299.07,718.789 1323.24,713.511 1349.99,713.511C1367.53,713.511 1382.74,715.562 1395.69,719.32C1412.18,724.107 1424.55,731.418 1433.41,740.106L1440.94,748.934L1446.83,759.39L1450.47,770.967L1451.65,782.836L1449.24,799.962L1443.01,813.31ZM1496.65,719.845L1606.65,719.845C1617.93,719.845 1628.43,725.607 1634.49,735.124C1637.32,739.565 1639.99,745.149 1642.21,752.014C1644.41,758.826 1645.65,766.42 1645.65,774.836C1645.65,784.497 1644.04,792.534 1641.53,799.062L1637.41,807.473L1631.35,815.446L1628.53,817.834C1630.1,821.023 1631.57,824.628 1632.88,828.68C1635.08,835.493 1636.31,843.087 1636.31,851.502C1636.31,861.238 1634.68,869.294 1632.15,875.794L1628.19,883.753C1631.16,886.05 1633.75,888.867 1635.82,892.124C1638.69,896.631 1641.45,902.485 1643.71,909.862C1645.84,916.832 1646.98,924.371 1646.98,932.502C1646.98,942.238 1645.35,950.294 1642.82,956.794L1638.6,965.274L1632.34,973.302L1623.74,980.386L1613.91,985.351L1603.78,988.043L1593.99,988.826L1496.65,988.826C1487.63,988.826 1479.58,987.341 1472.44,984.717L1460.83,978.991L1450.66,970.83L1442.5,960.657L1436.77,949.053C1434.15,941.916 1432.66,933.862 1432.66,924.836L1432.66,783.836C1432.66,774.809 1434.15,766.756 1436.77,759.618L1442.5,748.014L1450.66,737.841L1460.83,729.68L1472.44,723.954C1479.58,721.33 1487.63,719.845 1496.65,719.845ZM1799.32,719.845C1810.6,719.845 1821.1,725.607 1827.15,735.124C1830.02,739.631 1832.79,745.485 1835.04,752.862C1837.17,759.832 1838.31,767.371 1838.31,775.502C1838.31,785.218 1836.66,793.34 1834.07,799.984L1829.88,808.395L1823.83,816.301L1815.34,823.535L1805.44,828.746L1795.08,831.639L1784.99,832.493L1780.31,832.493L1780.31,954.502C1780.31,969.38 1770.36,982.416 1756,986.331C1752.6,987.258 1747.37,988.289 1740.26,989.216C1733.75,990.064 1727.11,990.493 1720.32,990.493C1698.07,990.493 1683.17,984.007 1674.18,976.091L1666.44,967.421L1661.17,957.894C1658.04,950.564 1656,941.266 1656,929.836L1656,832.493L1638.65,832.493C1627.38,832.493 1616.88,826.73 1610.82,817.214C1607.95,812.707 1605.19,806.852 1602.94,799.476C1600.81,792.506 1599.66,784.967 1599.66,776.836C1599.66,766.957 1601.32,758.778 1603.9,752.175L1608.17,743.611L1614.48,735.525L1623.01,728.464L1632.84,723.434L1643.06,720.661L1652.99,719.845L1799.32,719.845ZM1923,758.296L1923,752.169C1923,736.042 1934.66,722.278 1950.57,719.627C1953.36,719.161 1957.49,718.52 1962.96,717.705C1969.86,716.678 1976.53,716.178 1982.99,716.178C2004.04,716.178 2018.62,722.058 2027.88,729.635L2036.31,738.578L2041.94,748.483C2045.17,755.913 2047.31,765.525 2047.31,777.502L2047.31,954.502C2047.31,969.38 2037.36,982.416 2023,986.331C2019.6,987.258 2014.37,988.289 2007.26,989.216C2000.75,990.064 1994.11,990.493 1987.32,990.493C1965.07,990.493 1950.17,984.007 1941.18,976.091L1933.44,967.421L1928.17,957.894C1926.91,954.942 1925.83,951.672 1924.98,948.071L1924.98,954.502C1924.98,969.38 1915.02,982.416 1900.67,986.331C1897.27,987.258 1892.03,988.289 1884.92,989.216C1878.42,990.064 1871.78,990.493 1864.99,990.493C1842.74,990.493 1827.83,984.007 1818.85,976.091L1811.11,967.421L1805.84,957.894C1802.7,950.564 1800.66,941.266 1800.66,929.836L1800.66,752.169C1800.66,736.042 1812.32,722.278 1828.23,719.627C1831.03,719.161 1835.16,718.52 1840.63,717.705C1847.52,716.678 1854.2,716.178 1860.65,716.178C1881.35,716.178 1895.72,721.696 1904.83,728.73L1913.66,737.698L1919.51,747.714C1920.89,750.83 1922.08,754.352 1923,758.296ZM2088.66,719.845L2198.66,719.845C2209.93,719.845 2220.43,725.607 2226.49,735.124C2229.32,739.565 2231.99,745.149 2234.21,752.014C2236.41,758.826 2237.65,766.42 2237.65,774.836C2237.65,784.497 2236.04,792.534 2233.53,799.062L2229.41,807.473L2223.35,815.446L2220.53,817.834C2222.1,821.023 2223.57,824.628 2224.88,828.68C2227.08,835.493 2228.31,843.087 2228.31,851.502C2228.31,861.238 2226.68,869.294 2224.15,875.794L2220.19,883.753C2223.16,886.05 2225.75,888.867 2227.82,892.124C2230.69,896.631 2233.45,902.485 2235.71,909.862C2237.84,916.832 2238.98,924.371 2238.98,932.502C2238.98,942.238 2237.35,950.294 2234.82,956.794L2230.6,965.274L2224.34,973.302L2215.74,980.386L2205.91,985.351L2195.78,988.043L2185.99,988.826L2088.66,988.826C2079.63,988.826 2071.58,987.341 2064.44,984.717L2052.83,978.991L2042.66,970.83L2034.5,960.657L2028.77,949.053C2026.15,941.916 2024.66,933.862 2024.66,924.836L2024.66,783.836C2024.66,774.809 2026.15,766.756 2028.77,759.618L2034.5,748.014L2042.66,737.841L2052.83,729.68L2064.44,723.954C2071.58,721.33 2079.63,719.845 2088.66,719.845ZM2415.2,881.735C2415.84,882.567 2416.47,883.395 2417.1,884.219C2421.75,890.342 2426,896.011 2429.85,901.226C2434.44,907.435 2438.06,912.853 2440.76,917.442C2445.38,925.303 2446.55,934.728 2443.97,943.478C2441.82,950.791 2438.71,957.264 2434.78,962.964L2427.75,971.49L2419.38,978.647C2407.78,986.964 2394.77,991.16 2380.32,991.16C2361.25,991.16 2347.18,985.468 2337.2,977.042C2334.22,974.525 2331.32,971.709 2328.49,968.577C2324.47,977.099 2316.88,983.729 2307.34,986.331C2303.94,987.258 2298.7,988.289 2291.59,989.216C2285.09,990.064 2278.44,990.493 2271.66,990.493C2249.4,990.493 2234.5,984.007 2225.51,976.091L2217.78,967.421L2212.5,957.894C2209.37,950.564 2207.33,941.266 2207.33,929.836L2207.33,771.836L2210.37,754.2L2214.89,745.164L2221.5,737.183L2232,729.214C2235.37,727.201 2239.11,725.403 2243.25,723.879C2243.39,723.827 2243.53,723.776 2243.68,723.726C2253.24,720.35 2264.33,717.802 2276.99,716.255C2288.24,714.88 2300.24,714.178 2312.99,714.178C2353.22,714.178 2383.07,724.301 2403.48,741.354C2426.64,760.711 2438.65,786.41 2438.65,818.836C2438.65,839.586 2432.68,858.095 2420.95,874.424C2419.13,876.948 2417.22,879.385 2415.2,881.735Z" clip-rule="nonzero"/>
                            </clipPath>
                            <g clip-path="url(#_clip6)">
                                <g transform="matrix(1,-0,-0,1,450.571,-1525.08)">
                                    <path d="M5369.64,759.658L5371.78,761.355L5378.86,770.277L5383.67,780.276L5386.21,790.414L5386.94,800.183L5386.94,868.85C5386.94,876.83 5385.85,883.544 5384.15,889.053L5376.89,903.693C5372.28,909.98 5365.3,916.479 5355.24,922.347L5354.98,922.494C5346.64,927.263 5334.62,931.797 5318.67,935.374C5304.36,938.583 5290.12,940.174 5275.95,940.174C5249.92,940.174 5226.28,935.545 5205,926.596C5181.28,916.627 5162.49,900.904 5148.6,879.455C5135.34,858.988 5127.96,832.803 5127.96,800.517C5127.96,770.048 5135.24,744.511 5148.74,723.618C5162.46,702.369 5180.88,686.261 5204.05,675.341C5225.7,665.137 5249.86,659.859 5276.62,659.859C5294.15,659.859 5309.37,661.91 5322.31,665.667C5338.81,670.455 5351.18,677.765 5360.04,686.454L5367.57,695.282L5373.45,705.737L5377.1,717.315L5378.27,729.183L5375.87,746.31L5369.64,759.658Z" style="fill:rgb(46,46,46);"/>
                                </g>
                                <g transform="matrix(1,-0,-0,1,450.571,-1525.08)">
                                    <path d="M5423.28,666.193L5533.28,666.193C5544.56,666.193 5555.06,671.955 5561.12,681.471C5563.94,685.913 5566.62,691.497 5568.84,698.361C5571.04,705.174 5572.27,712.768 5572.27,721.183C5572.27,730.845 5570.67,738.882 5568.16,745.41L5564.04,753.821L5557.97,761.794L5555.16,764.182C5556.73,767.37 5558.19,770.976 5559.51,775.028C5561.71,781.84 5562.94,789.435 5562.94,797.85C5562.94,807.586 5561.31,815.642 5558.78,822.141L5554.82,830.1C5557.78,832.397 5560.38,835.215 5562.45,838.471C5565.32,842.979 5568.08,848.833 5570.33,856.21C5572.46,863.179 5573.61,870.719 5573.61,878.85C5573.61,888.586 5571.97,896.642 5569.45,903.141L5565.23,911.622L5558.97,919.65L5550.37,926.734L5540.53,931.699L5530.4,934.39L5520.62,935.174L5423.28,935.174C5414.26,935.174 5406.2,933.689 5399.07,931.065L5387.46,925.339L5377.29,917.178L5369.13,907.005L5363.4,895.401C5360.78,888.263 5359.29,880.21 5359.29,871.183L5359.29,730.183C5359.29,721.157 5360.78,713.103 5363.4,705.966L5369.13,694.362L5377.29,684.189L5387.46,676.028L5399.07,670.302C5406.2,667.678 5414.26,666.193 5423.28,666.193Z" style="fill:rgb(46,46,46);"/>
                                </g>
                                <g transform="matrix(1,-0,-0,1,450.571,-1525.08)">
                                    <path d="M5725.95,666.193C5737.23,666.193 5747.73,671.955 5753.78,681.471C5756.65,685.979 5759.41,691.833 5761.67,699.21C5763.8,706.179 5764.94,713.719 5764.94,721.85C5764.94,731.566 5763.29,739.688 5760.69,746.332L5756.51,754.743L5750.45,762.649L5741.96,769.883L5732.07,775.094L5721.7,777.987L5711.62,778.841L5706.94,778.841L5706.94,900.85C5706.94,915.727 5696.98,928.764 5682.63,932.678C5679.23,933.606 5673.99,934.636 5666.88,935.564C5660.38,936.412 5653.74,936.841 5646.95,936.841C5624.7,936.841 5609.79,930.355 5600.81,922.438L5593.07,913.769L5587.8,904.242C5584.67,896.911 5582.62,887.614 5582.62,876.183L5582.62,778.841L5565.28,778.841C5554,778.841 5543.51,773.078 5537.45,763.562C5534.58,759.054 5531.82,753.2 5529.57,745.824C5527.44,738.854 5526.29,731.315 5526.29,723.183C5526.29,713.305 5527.95,705.125 5530.52,698.523L5534.8,689.959L5541.11,681.873L5549.64,674.812L5559.47,669.782L5569.69,667.009L5579.62,666.193L5725.95,666.193Z" style="fill:rgb(46,46,46);"/>
                                </g>
                                <g transform="matrix(1,-0,-0,1,450.571,-1525.08)">
                                    <path d="M5849.62,704.644L5849.62,698.517C5849.62,682.39 5861.28,668.626 5877.19,665.975C5879.99,665.509 5884.12,664.867 5889.59,664.052C5896.48,663.026 5903.16,662.526 5909.62,662.526C5930.66,662.526 5945.25,668.406 5954.51,675.983L5962.94,684.926L5968.57,694.83C5971.8,702.261 5973.94,711.873 5973.94,723.85L5973.94,900.85C5973.94,915.727 5963.98,928.764 5949.63,932.678C5946.23,933.606 5940.99,934.636 5933.88,935.564C5927.38,936.412 5920.74,936.841 5913.95,936.841C5891.7,936.841 5876.79,930.355 5867.81,922.438L5860.07,913.769L5854.8,904.242C5853.54,901.29 5852.45,898.019 5851.61,894.419L5851.61,900.85C5851.61,915.727 5841.65,928.764 5827.3,932.678C5823.9,933.606 5818.66,934.636 5811.55,935.564C5805.05,936.412 5798.4,936.841 5791.62,936.841C5769.36,936.841 5754.46,930.355 5745.48,922.438L5737.74,913.769L5732.46,904.242C5729.33,896.911 5727.29,887.614 5727.29,876.183L5727.29,698.517C5727.29,682.39 5738.95,668.626 5754.86,665.975C5757.65,665.509 5761.78,664.867 5767.26,664.052C5774.15,663.026 5780.83,662.526 5787.28,662.526C5807.97,662.526 5822.35,668.043 5831.45,675.078L5840.29,684.046L5846.14,694.062C5847.52,697.178 5848.71,700.7 5849.62,704.644Z" style="fill:rgb(46,46,46);"/>
                                </g>
                                <g transform="matrix(1,-0,-0,1,450.571,-1525.08)">
                                    <path d="M6015.28,666.193L6125.28,666.193C6136.56,666.193 6147.06,671.955 6153.12,681.471C6155.94,685.913 6158.62,691.497 6160.84,698.361C6163.04,705.174 6164.27,712.768 6164.27,721.183C6164.27,730.845 6162.67,738.882 6160.16,745.41L6156.04,753.821L6149.97,761.794L6147.16,764.182C6148.73,767.37 6150.19,770.976 6151.51,775.028C6153.71,781.84 6154.94,789.435 6154.94,797.85C6154.94,807.586 6153.31,815.642 6150.78,822.141L6146.82,830.1C6149.78,832.397 6152.38,835.215 6154.45,838.471C6157.32,842.979 6160.08,848.833 6162.33,856.21C6164.46,863.179 6165.61,870.719 6165.61,878.85C6165.61,888.586 6163.97,896.642 6161.45,903.141L6157.23,911.622L6150.97,919.65L6142.37,926.734L6132.53,931.699L6122.4,934.39L6112.62,935.174L6015.28,935.174C6006.26,935.174 5998.2,933.689 5991.07,931.065L5979.46,925.339L5969.29,917.178L5961.13,907.005L5955.4,895.401C5952.78,888.263 5951.29,880.21 5951.29,871.183L5951.29,730.183C5951.29,721.157 5952.78,713.103 5955.4,705.966L5961.13,694.362L5969.29,684.189L5979.46,676.028L5991.07,670.302C5998.2,667.678 6006.26,666.193 6015.28,666.193Z" style="fill:rgb(46,46,46);"/>
                                </g>
                                <g transform="matrix(1,-0,-0,1,450.571,-1525.08)">
                                    <path d="M6341.83,828.082C6342.47,828.915 6343.1,829.743 6343.73,830.567C6348.37,836.689 6352.62,842.358 6356.48,847.574C6361.07,853.783 6364.69,859.201 6367.39,863.79C6372.01,871.651 6373.17,881.076 6370.6,889.826C6368.45,897.139 6365.34,903.612 6361.41,909.312L6354.38,917.838L6346.01,924.995C6334.41,933.312 6321.4,937.508 6306.95,937.508C6287.88,937.508 6273.81,931.816 6263.83,923.389C6260.85,920.873 6257.94,918.056 6255.12,914.924C6251.1,923.447 6243.5,930.077 6233.96,932.678C6230.56,933.606 6225.33,934.636 6218.22,935.564C6211.71,936.412 6205.07,936.841 6198.28,936.841C6176.03,936.841 6161.13,930.355 6152.14,922.438L6144.4,913.769L6139.13,904.242C6136,896.911 6133.96,887.614 6133.96,876.183L6133.96,718.183L6137,700.548L6141.52,691.511L6148.12,683.531L6158.63,675.562C6162,673.548 6165.74,671.75 6169.88,670.227C6170.02,670.175 6170.16,670.123 6170.3,670.073C6179.87,666.698 6190.96,664.15 6203.61,662.603C6214.86,661.228 6226.86,660.526 6239.62,660.526C6279.85,660.526 6309.7,670.648 6330.11,687.702C6353.27,707.058 6365.27,732.757 6365.27,765.183C6365.27,785.934 6359.31,804.443 6347.57,820.771C6345.76,823.296 6343.85,825.733 6341.83,828.082Z" style="fill:rgb(46,46,46);"/>
                                </g>
                            </g>
                        </g>
                    </g>
                    <g transform="matrix(1,0,0,1,3926.63,-53.6522)">
                        <g transform="matrix(333.333,0,0,333.333,1222.66,954.836)">
                            <path d="M0.614,-0.303L0.614,-0.097C0.614,-0.076 0.61,-0.061 0.603,-0.051C0.596,-0.041 0.584,-0.031 0.568,-0.022C0.549,-0.011 0.522,-0.002 0.487,0.006C0.451,0.014 0.415,0.018 0.38,0.018C0.316,0.018 0.258,0.007 0.206,-0.015C0.153,-0.037 0.112,-0.072 0.081,-0.119C0.05,-0.166 0.035,-0.227 0.035,-0.302C0.035,-0.372 0.051,-0.431 0.082,-0.479C0.113,-0.527 0.154,-0.563 0.207,-0.588C0.259,-0.613 0.317,-0.625 0.382,-0.625C0.424,-0.625 0.46,-0.62 0.492,-0.612C0.523,-0.603 0.546,-0.59 0.563,-0.574C0.58,-0.557 0.588,-0.538 0.588,-0.516C0.588,-0.499 0.584,-0.485 0.575,-0.472C0.566,-0.459 0.556,-0.448 0.545,-0.441C0.528,-0.451 0.507,-0.461 0.482,-0.47C0.457,-0.479 0.428,-0.484 0.395,-0.484C0.36,-0.484 0.328,-0.476 0.301,-0.462C0.274,-0.447 0.253,-0.426 0.238,-0.399C0.223,-0.372 0.215,-0.34 0.215,-0.303C0.215,-0.263 0.222,-0.23 0.237,-0.203C0.251,-0.175 0.271,-0.155 0.296,-0.142C0.321,-0.129 0.35,-0.122 0.383,-0.122C0.398,-0.122 0.411,-0.124 0.422,-0.127C0.432,-0.13 0.441,-0.132 0.447,-0.135L0.447,-0.231L0.34,-0.231C0.336,-0.238 0.332,-0.248 0.329,-0.26C0.325,-0.272 0.323,-0.285 0.323,-0.298C0.323,-0.322 0.329,-0.339 0.34,-0.35C0.35,-0.361 0.365,-0.366 0.382,-0.366L0.551,-0.366C0.571,-0.366 0.587,-0.361 0.598,-0.35C0.608,-0.339 0.614,-0.323 0.614,-0.303Z" style="fill:rgb(249,250,251);fill-rule:nonzero;"/>
                        </g>
                        <g transform="matrix(333.333,0,0,333.333,1443.99,954.836)">
                            <path d="M0.065,-0.442L0.235,-0.442L0.235,-0.006C0.228,-0.004 0.217,-0.002 0.203,-0C0.189,0.002 0.174,0.003 0.158,0.003C0.129,0.003 0.107,-0.005 0.09,-0.022C0.073,-0.039 0.065,-0.061 0.065,-0.09L0.065,-0.442ZM0.235,-0.161L0.065,-0.161L0.065,-0.513C0.065,-0.542 0.073,-0.564 0.09,-0.581C0.107,-0.598 0.129,-0.606 0.158,-0.606C0.174,-0.606 0.189,-0.605 0.203,-0.603C0.217,-0.601 0.228,-0.599 0.235,-0.597L0.235,-0.161ZM0.158,-0.24L0.158,-0.376L0.46,-0.376C0.465,-0.369 0.469,-0.359 0.473,-0.348C0.476,-0.337 0.478,-0.324 0.478,-0.31C0.478,-0.285 0.473,-0.268 0.462,-0.257C0.451,-0.245 0.437,-0.24 0.418,-0.24L0.158,-0.24ZM0.158,0.003L0.158,-0.135L0.492,-0.135C0.497,-0.128 0.501,-0.118 0.505,-0.106C0.508,-0.094 0.51,-0.081 0.51,-0.067C0.51,-0.042 0.505,-0.024 0.494,-0.014C0.483,-0.003 0.469,0.003 0.45,0.003L0.158,0.003ZM0.158,-0.469L0.158,-0.606L0.488,-0.606C0.493,-0.599 0.497,-0.589 0.501,-0.578C0.504,-0.567 0.506,-0.554 0.506,-0.54C0.506,-0.515 0.501,-0.497 0.49,-0.486C0.479,-0.475 0.465,-0.469 0.446,-0.469L0.158,-0.469Z" style="fill:rgb(249,250,251);fill-rule:nonzero;"/>
                        </g>
                        <g transform="matrix(333.333,0,0,333.333,1626.66,954.836)">
                            <path d="M0.185,-0.466L0.185,-0.606L0.518,-0.606C0.523,-0.599 0.527,-0.589 0.531,-0.577C0.534,-0.565 0.536,-0.552 0.536,-0.538C0.536,-0.513 0.531,-0.495 0.52,-0.484C0.509,-0.472 0.494,-0.466 0.475,-0.466L0.185,-0.466ZM0.369,-0.606L0.369,-0.466L0.036,-0.466C0.031,-0.473 0.027,-0.483 0.024,-0.495C0.02,-0.507 0.018,-0.52 0.018,-0.534C0.018,-0.559 0.024,-0.578 0.035,-0.589C0.046,-0.6 0.06,-0.606 0.079,-0.606L0.369,-0.606ZM0.187,-0.493L0.362,-0.493L0.362,-0.001C0.355,0.001 0.343,0.003 0.328,0.005C0.313,0.007 0.297,0.008 0.281,0.008C0.246,0.008 0.222,0.002 0.208,-0.011C0.194,-0.023 0.187,-0.044 0.187,-0.075L0.187,-0.493Z" style="fill:rgb(249,250,251);fill-rule:nonzero;"/>
                        </g>
                        <g transform="matrix(333.333,0,0,333.333,1811.99,954.836)">
                            <path d="M0.065,-0.442L0.24,-0.442L0.24,-0.001C0.233,0.001 0.221,0.003 0.206,0.005C0.191,0.007 0.175,0.008 0.159,0.008C0.124,0.008 0.1,0.002 0.086,-0.011C0.072,-0.023 0.065,-0.044 0.065,-0.075L0.065,-0.442ZM0.24,-0.211L0.065,-0.211L0.065,-0.608C0.073,-0.609 0.085,-0.611 0.101,-0.614C0.116,-0.616 0.131,-0.617 0.146,-0.617C0.179,-0.617 0.203,-0.611 0.218,-0.6C0.233,-0.589 0.24,-0.567 0.24,-0.534L0.24,-0.211ZM0.432,-0.442L0.607,-0.442L0.607,-0.001C0.6,0.001 0.588,0.003 0.573,0.005C0.558,0.007 0.542,0.008 0.526,0.008C0.491,0.008 0.467,0.002 0.453,-0.011C0.439,-0.023 0.432,-0.044 0.432,-0.075L0.432,-0.442ZM0.607,-0.211L0.432,-0.211L0.432,-0.608C0.44,-0.609 0.452,-0.611 0.468,-0.614C0.483,-0.616 0.498,-0.617 0.513,-0.617C0.546,-0.617 0.57,-0.611 0.585,-0.599C0.6,-0.587 0.607,-0.565 0.607,-0.532L0.607,-0.211ZM0.533,-0.234L0.14,-0.234L0.14,-0.372L0.533,-0.372L0.533,-0.234Z" style="fill:rgb(249,250,251);fill-rule:nonzero;"/>
                        </g>
                        <g transform="matrix(333.333,0,0,333.333,2035.99,954.836)">
                            <path d="M0.065,-0.442L0.235,-0.442L0.235,-0.006C0.228,-0.004 0.217,-0.002 0.203,-0C0.189,0.002 0.174,0.003 0.158,0.003C0.129,0.003 0.107,-0.005 0.09,-0.022C0.073,-0.039 0.065,-0.061 0.065,-0.09L0.065,-0.442ZM0.235,-0.161L0.065,-0.161L0.065,-0.513C0.065,-0.542 0.073,-0.564 0.09,-0.581C0.107,-0.598 0.129,-0.606 0.158,-0.606C0.174,-0.606 0.189,-0.605 0.203,-0.603C0.217,-0.601 0.228,-0.599 0.235,-0.597L0.235,-0.161ZM0.158,-0.24L0.158,-0.376L0.46,-0.376C0.465,-0.369 0.469,-0.359 0.473,-0.348C0.476,-0.337 0.478,-0.324 0.478,-0.31C0.478,-0.285 0.473,-0.268 0.462,-0.257C0.451,-0.245 0.437,-0.24 0.418,-0.24L0.158,-0.24ZM0.158,0.003L0.158,-0.135L0.492,-0.135C0.497,-0.128 0.501,-0.118 0.505,-0.106C0.508,-0.094 0.51,-0.081 0.51,-0.067C0.51,-0.042 0.505,-0.024 0.494,-0.014C0.483,-0.003 0.469,0.003 0.45,0.003L0.158,0.003ZM0.158,-0.469L0.158,-0.606L0.488,-0.606C0.493,-0.599 0.497,-0.589 0.501,-0.578C0.504,-0.567 0.506,-0.554 0.506,-0.54C0.506,-0.515 0.501,-0.497 0.49,-0.486C0.479,-0.475 0.465,-0.469 0.446,-0.469L0.158,-0.469Z" style="fill:rgb(249,250,251);fill-rule:nonzero;"/>
                        </g>
                        <g transform="matrix(333.333,0,0,333.333,2218.66,954.836)">
                            <path d="M0.238,-0.329L0.288,-0.329C0.316,-0.329 0.339,-0.335 0.357,-0.349C0.375,-0.362 0.384,-0.381 0.384,-0.406C0.384,-0.431 0.376,-0.451 0.36,-0.464C0.343,-0.476 0.317,-0.483 0.282,-0.483C0.273,-0.483 0.266,-0.483 0.259,-0.482C0.252,-0.481 0.245,-0.48 0.238,-0.479L0.238,-0.329ZM0.306,-0.196L0.065,-0.196L0.065,-0.549C0.065,-0.563 0.069,-0.574 0.077,-0.582C0.085,-0.589 0.095,-0.595 0.108,-0.6C0.131,-0.608 0.157,-0.614 0.187,-0.618C0.217,-0.621 0.249,-0.623 0.283,-0.623C0.375,-0.623 0.444,-0.604 0.491,-0.565C0.538,-0.526 0.561,-0.473 0.561,-0.408C0.561,-0.367 0.55,-0.331 0.527,-0.299C0.503,-0.267 0.473,-0.242 0.435,-0.224C0.396,-0.205 0.353,-0.196 0.306,-0.196ZM0.269,-0.235L0.428,-0.267C0.443,-0.247 0.458,-0.227 0.473,-0.208C0.488,-0.189 0.503,-0.17 0.517,-0.152C0.53,-0.134 0.543,-0.117 0.554,-0.102C0.565,-0.087 0.574,-0.073 0.581,-0.062C0.574,-0.039 0.562,-0.022 0.545,-0.009C0.527,0.004 0.507,0.01 0.485,0.01C0.456,0.01 0.435,0.004 0.42,-0.009C0.405,-0.022 0.391,-0.038 0.378,-0.059L0.269,-0.235ZM0.065,-0.264L0.24,-0.264L0.24,-0.001C0.233,0.001 0.221,0.003 0.206,0.005C0.191,0.007 0.175,0.008 0.159,0.008C0.124,0.008 0.1,0.002 0.086,-0.011C0.072,-0.023 0.065,-0.044 0.065,-0.075L0.065,-0.264Z" style="fill:rgb(249,250,251);fill-rule:nonzero;"/>
                        </g>
                    </g>
                    <g transform="matrix(1,0,0,1,4168.27,91.7167)">
                        <g transform="matrix(1,0,0,1,46.2108,-448.905)">
                            <path d="M1002.8,1294.84L1000.7,1293.15C1001.7,1293.9 1002.69,1294.67 1003.06,1295.03L1002.8,1294.84ZM1002.8,1294.84L1012,1302.23C1015.38,1305.78 1018.93,1310.31 1022.11,1316.13C1030.42,1331.32 1038.63,1358.94 1022.9,1408.72C1012.88,1440.44 985.461,1528.98 969.094,1566.06C964.982,1575.38 961.071,1582.29 958.138,1586.24L952.281,1592.75L944.095,1598.36C933.128,1603.84 905.649,1608 871.981,1608.6C811.939,1609.65 728.929,1603.82 712.896,1602.43L712.517,1602.45L699.5,1601.49L687.755,1597.45C681.114,1594.21 672.582,1588.43 662.941,1575.94C646.336,1554.43 620.032,1501.96 580.98,1372.6L579.465,1363.61L579.937,1355.29C581.028,1348.07 585.714,1334.06 595.061,1318.16C619.456,1276.65 675.259,1221.68 748.19,1240.52C756.048,1242.55 769.385,1250.03 782.285,1261.38C794.274,1271.93 806.289,1285.55 813.685,1296.6C844.871,1289.8 889.13,1281.33 924.871,1278.94C946.806,1277.48 966.005,1278.52 978.994,1282.13L993.167,1287.84L1002.8,1294.84ZM1000.7,1293.15C999.431,1292.19 998.158,1291.25 998.158,1291.25C998.158,1291.25 998.606,1291.52 998.885,1291.69L1000.7,1293.15Z" style="fill:rgb(17,24,39);"/>
                        </g>
                        <g transform="matrix(1,0,0,1,48.2298,-445.876)">
                            <path d="M808.268,1121C811.193,1099.58 813.566,1081.43 814.264,1074.04C814.608,1070.39 815.231,1066.91 816.086,1063.61L819.502,1053.78L824.396,1044.81L830.602,1036.91L837.938,1030.23L846.233,1024.91L855.329,1021.06L865.067,1018.82L875.248,1018.37L885.581,1019.86L895.665,1023.41L905.018,1028.95L913.187,1036.27L919.867,1044.98C923.395,1050.54 926.42,1057.22 928.488,1065.18C929.359,1068.53 930.473,1080.44 930.514,1097.78C930.637,1149.91 926.671,1266.9 925.734,1294.69C925.633,1297.67 925.55,1300.24 925.55,1300.24C925.55,1300.24 925.46,1300.01 925.298,1299.61L925.316,1303.97L922.288,1314.08L913.656,1325.15L902.501,1331.56C888.015,1337.23 813.177,1354.34 797.303,1353.53L787.092,1351.71L778.771,1347.76L769.23,1338.43L764.427,1327.7C762.67,1320.68 668.747,1122.42 667.115,1115.92C656.526,1073.76 670.496,1052.62 683.213,1043.05L691.835,1037.91L700.708,1034.85L713.212,1033.45L724.262,1034.57C738.466,1037.32 754.246,1045.93 765.567,1056.95C775.914,1067.03 792.156,1092.9 808.268,1121ZM915.896,1276.22C915.896,1276.22 915.895,1276.22 915.894,1276.22L915.896,1276.22ZM812.232,1237.41L805.499,1244.14C802.787,1241.43 798.788,1235.89 793.952,1228.39C793.324,1229.28 792.884,1229.92 792.884,1229.92C792.884,1229.92 793.017,1229.01 793.261,1227.31C788.763,1220.27 783.581,1211.62 778.063,1202.01C792.169,1232.26 806.467,1262.92 816.213,1284.14L860.402,1274.18C860.849,1260.65 861.433,1242.54 862.02,1222.71C861.241,1227.04 860.46,1231.04 859.685,1234.65C855.55,1253.91 848.355,1266 844.586,1269.77L812.232,1237.41ZM859.728,1294.3C857.412,1304.99 860.842,1314.48 869.24,1322.87L861.922,1311.76L859.723,1302.65L859.584,1298.77C859.592,1298.44 859.641,1296.89 859.728,1294.3ZM824.497,1302.36C826.832,1307.59 828.238,1310.9 828.439,1311.7C827.626,1308.45 826.35,1305.32 824.497,1302.36Z" style="fill:rgb(17,24,39);"/>
                        </g>
                        <g transform="matrix(1,0,0,1,111.021,-370.782)">
                            <path d="M227.629,690.08C226.287,680.844 226.745,672.525 228.301,665.346L231.397,655.34L236.339,645.924L243.15,637.516L251.679,630.603L261.557,625.64L272.24,622.92L283.13,622.503L293.713,624.232C303.102,626.708 313.238,631.944 322.69,641.206C323.186,636.827 324.099,632.767 325.306,629.066L330.098,618.305L337.286,608.615L346.794,600.686L358.191,595.266C379.511,588.297 414.997,594.471 434.149,641.954C436.315,647.325 440.681,657.354 445.985,669.319C449.426,656.089 455.433,645.943 461.858,639.005L475.711,628.242L484.661,624.596L494.789,622.855L505.438,623.546L515.613,626.755L524.454,632.013L531.594,638.603C539.605,647.566 547.611,663.372 548.679,688.45C549.283,702.655 550.339,743.262 555.446,777.778C557.556,792.045 563.61,811.276 564.333,813.548C593.43,842.977 682.589,947.626 614.023,1061.35C610.431,1072.62 599.612,1100.51 567.27,1123.04C538.685,1142.95 490.96,1160.1 410.379,1150.05C308.015,1137.28 245.025,1060.26 230.577,1016.92L228.499,1007.8L228.192,998.833L230.325,986.727L234.388,976.52C240.048,965.227 250.96,952.499 265.799,940.166C271.635,935.316 278.142,930.439 285.062,925.618C253.79,890.89 207.754,816.569 176.847,769.992C170.157,759.912 166.778,750.958 165.264,743.519L164.162,733.421L165.205,722.699L168.097,713.751L172.882,705.484L179.209,698.55L186.483,693.313L196.052,689.141L205.53,687.213L223.366,688.39L227.629,690.08Z" style="fill:rgb(17,24,39);"/>
                        </g>
                    </g>
                    <g transform="matrix(1,0,0,1,4150.71,213.634)">
                        <g transform="matrix(333.333,0,0,333.333,731.674,415.719)">
                            <path d="M0.345,-0.458C0.352,-0.461 0.364,-0.465 0.38,-0.47C0.395,-0.474 0.411,-0.476 0.427,-0.476C0.455,-0.476 0.478,-0.472 0.497,-0.464C0.516,-0.455 0.527,-0.443 0.531,-0.427C0.541,-0.39 0.55,-0.357 0.558,-0.327C0.566,-0.297 0.574,-0.268 0.582,-0.24C0.589,-0.212 0.597,-0.182 0.604,-0.151L0.609,-0.151C0.617,-0.206 0.624,-0.257 0.63,-0.306C0.635,-0.354 0.641,-0.401 0.646,-0.448C0.651,-0.494 0.657,-0.541 0.662,-0.589C0.687,-0.603 0.714,-0.61 0.741,-0.61C0.766,-0.61 0.787,-0.605 0.805,-0.594C0.823,-0.583 0.832,-0.565 0.832,-0.54C0.832,-0.525 0.831,-0.505 0.828,-0.478C0.825,-0.451 0.821,-0.421 0.816,-0.387C0.811,-0.353 0.805,-0.318 0.798,-0.282C0.791,-0.246 0.784,-0.211 0.777,-0.177C0.77,-0.143 0.762,-0.113 0.755,-0.086C0.747,-0.059 0.74,-0.039 0.733,-0.024C0.723,-0.015 0.707,-0.008 0.684,-0.002C0.661,0.005 0.638,0.008 0.614,0.008C0.583,0.008 0.557,0.004 0.535,-0.005C0.513,-0.014 0.5,-0.025 0.495,-0.04C0.49,-0.058 0.484,-0.078 0.477,-0.1C0.47,-0.122 0.464,-0.146 0.457,-0.173C0.45,-0.199 0.442,-0.227 0.435,-0.256C0.429,-0.227 0.423,-0.199 0.416,-0.171C0.409,-0.142 0.403,-0.116 0.397,-0.091C0.39,-0.066 0.384,-0.043 0.379,-0.024C0.369,-0.015 0.354,-0.008 0.334,-0.002C0.314,0.005 0.292,0.008 0.268,0.008C0.239,0.008 0.212,0.004 0.187,-0.005C0.162,-0.014 0.146,-0.025 0.139,-0.04C0.132,-0.055 0.125,-0.077 0.116,-0.108C0.107,-0.138 0.098,-0.173 0.089,-0.213C0.08,-0.252 0.071,-0.294 0.063,-0.337C0.054,-0.38 0.047,-0.422 0.04,-0.463C0.033,-0.504 0.028,-0.542 0.025,-0.575C0.034,-0.584 0.047,-0.592 0.064,-0.599C0.081,-0.606 0.099,-0.61 0.118,-0.61C0.143,-0.61 0.164,-0.604 0.181,-0.594C0.197,-0.583 0.207,-0.564 0.211,-0.538C0.222,-0.47 0.231,-0.413 0.238,-0.368C0.245,-0.323 0.25,-0.286 0.254,-0.257C0.258,-0.228 0.261,-0.206 0.264,-0.19C0.266,-0.173 0.268,-0.16 0.27,-0.151L0.275,-0.151C0.281,-0.178 0.287,-0.202 0.292,-0.225C0.297,-0.248 0.303,-0.27 0.309,-0.293C0.314,-0.316 0.32,-0.34 0.326,-0.367C0.332,-0.394 0.338,-0.424 0.345,-0.458Z" style="fill:rgb(249,250,251);fill-rule:nonzero;"/>
                        </g>
                        <g transform="matrix(333.333,0,0,333.333,1014.34,415.719)">
                            <path d="M0.32,-0.459L0.314,-0.459C0.308,-0.44 0.301,-0.42 0.294,-0.398C0.287,-0.376 0.279,-0.353 0.271,-0.329C0.263,-0.304 0.255,-0.279 0.248,-0.253L0.226,-0.14C0.222,-0.127 0.219,-0.114 0.216,-0.101C0.213,-0.088 0.21,-0.076 0.207,-0.065C0.204,-0.054 0.193,-0.011 0.19,-0.001C0.181,0.002 0.172,0.004 0.161,0.007C0.15,0.01 0.138,0.011 0.123,0.011C0.09,0.011 0.065,0.005 0.048,-0.007C0.031,-0.018 0.023,-0.034 0.023,-0.055C0.023,-0.064 0.024,-0.074 0.027,-0.083C0.03,-0.092 0.033,-0.103 0.036,-0.116C0.041,-0.137 0.049,-0.165 0.06,-0.199C0.071,-0.232 0.083,-0.269 0.096,-0.308C0.109,-0.346 0.122,-0.385 0.135,-0.422C0.148,-0.459 0.159,-0.493 0.17,-0.523C0.181,-0.552 0.189,-0.574 0.194,-0.588C0.205,-0.595 0.223,-0.601 0.246,-0.607C0.269,-0.613 0.292,-0.616 0.315,-0.616C0.348,-0.616 0.378,-0.611 0.404,-0.602C0.43,-0.592 0.446,-0.576 0.453,-0.555C0.465,-0.521 0.478,-0.481 0.492,-0.436C0.505,-0.39 0.519,-0.342 0.534,-0.293C0.548,-0.243 0.562,-0.195 0.575,-0.148C0.588,-0.1 0.6,-0.058 0.61,-0.021C0.602,-0.012 0.59,-0.005 0.574,0.001C0.558,0.007 0.539,0.01 0.517,0.01C0.484,0.01 0.462,0.005 0.449,-0.007C0.436,-0.017 0.427,-0.034 0.421,-0.057L0.396,-0.153L0.376,-0.256C0.369,-0.282 0.363,-0.307 0.356,-0.331C0.349,-0.355 0.343,-0.378 0.337,-0.4C0.331,-0.421 0.325,-0.441 0.32,-0.459ZM0.151,-0.126L0.22,-0.261L0.44,-0.261L0.461,-0.126L0.151,-0.126Z" style="fill:rgb(249,250,251);fill-rule:nonzero;"/>
                        </g>
                        <g transform="matrix(333.333,0,0,333.333,1223.34,415.719)">
                            <path d="M0.238,-0.329L0.288,-0.329C0.316,-0.329 0.339,-0.335 0.357,-0.349C0.375,-0.362 0.384,-0.381 0.384,-0.406C0.384,-0.431 0.376,-0.451 0.36,-0.464C0.343,-0.476 0.317,-0.483 0.282,-0.483C0.273,-0.483 0.266,-0.483 0.259,-0.482C0.252,-0.481 0.245,-0.48 0.238,-0.479L0.238,-0.329ZM0.306,-0.196L0.065,-0.196L0.065,-0.549C0.065,-0.563 0.069,-0.574 0.077,-0.582C0.085,-0.589 0.095,-0.595 0.108,-0.6C0.131,-0.608 0.157,-0.614 0.187,-0.618C0.217,-0.621 0.249,-0.623 0.283,-0.623C0.375,-0.623 0.444,-0.604 0.491,-0.565C0.538,-0.526 0.561,-0.473 0.561,-0.408C0.561,-0.367 0.55,-0.331 0.527,-0.299C0.503,-0.267 0.473,-0.242 0.435,-0.224C0.396,-0.205 0.353,-0.196 0.306,-0.196ZM0.269,-0.235L0.428,-0.267C0.443,-0.247 0.458,-0.227 0.473,-0.208C0.488,-0.189 0.503,-0.17 0.517,-0.152C0.53,-0.134 0.543,-0.117 0.554,-0.102C0.565,-0.087 0.574,-0.073 0.581,-0.062C0.574,-0.039 0.562,-0.022 0.545,-0.009C0.527,0.004 0.507,0.01 0.485,0.01C0.456,0.01 0.435,0.004 0.42,-0.009C0.405,-0.022 0.391,-0.038 0.378,-0.059L0.269,-0.235ZM0.065,-0.264L0.24,-0.264L0.24,-0.001C0.233,0.001 0.221,0.003 0.206,0.005C0.191,0.007 0.175,0.008 0.159,0.008C0.124,0.008 0.1,0.002 0.086,-0.011C0.072,-0.023 0.065,-0.044 0.065,-0.075L0.065,-0.264Z" style="fill:rgb(249,250,251);fill-rule:nonzero;"/>
                        </g>
                        <g transform="matrix(333.333,0,0,333.333,1426.34,415.719)">
                            <path d="M0.451,-0.301C0.451,-0.242 0.437,-0.198 0.408,-0.169C0.379,-0.14 0.341,-0.125 0.296,-0.125C0.287,-0.125 0.278,-0.126 0.267,-0.127C0.256,-0.128 0.246,-0.129 0.239,-0.13L0.239,-0.478C0.249,-0.479 0.259,-0.48 0.269,-0.481C0.278,-0.482 0.288,-0.482 0.297,-0.482C0.328,-0.482 0.356,-0.475 0.379,-0.462C0.402,-0.448 0.419,-0.428 0.432,-0.401C0.445,-0.374 0.451,-0.341 0.451,-0.301ZM0.631,-0.304C0.631,-0.377 0.616,-0.437 0.588,-0.484C0.559,-0.531 0.518,-0.566 0.467,-0.589C0.415,-0.612 0.354,-0.623 0.285,-0.623C0.26,-0.623 0.231,-0.622 0.199,-0.619C0.167,-0.616 0.137,-0.609 0.108,-0.6C0.095,-0.595 0.085,-0.589 0.077,-0.582C0.069,-0.574 0.065,-0.563 0.065,-0.549L0.065,-0.082C0.065,-0.047 0.083,-0.023 0.12,-0.009C0.147,0.001 0.177,0.008 0.211,0.011C0.244,0.014 0.272,0.016 0.295,0.016C0.362,0.016 0.421,0.004 0.472,-0.02C0.522,-0.043 0.561,-0.079 0.589,-0.126C0.617,-0.173 0.631,-0.233 0.631,-0.304Z" style="fill:rgb(249,250,251);fill-rule:nonzero;"/>
                        </g>
                        <g transform="matrix(333.333,0,0,333.333,1648.34,415.719)">
                        </g>
                    </g>
                    <g transform="matrix(1,0,0,1,4168.27,91.7167)">
                        <g transform="matrix(1,0,0,1,46.2108,-448.905)">
                            <path d="M817.579,1379.63C810.357,1380.36 766.256,1343.39 785.14,1337.09C787.572,1336.28 954.006,1294.23 980.483,1319.08C982.101,1320.6 1012.47,1332.24 991.441,1398.78C979.184,1437.56 940.511,1563.26 929.341,1568.85C900.063,1583.49 721.789,1570.37 714.486,1569.46C704.504,1568.21 680.956,1589.62 612.563,1363.07C609.341,1352.39 659.771,1251.76 739.941,1272.46C755.112,1276.38 798.349,1321.02 789.292,1327.54C774.079,1338.5 784.773,1330.23 770.499,1339.75C760.889,1346.16 786.883,1367.55 788.228,1375.05C792.995,1401.63 767.851,1395.68 759.978,1387C744.876,1370.36 713.131,1321.29 709.192,1325.23C708.911,1325.51 695.433,1319.33 701.948,1332.55C705.268,1339.28 744.431,1390.9 747.529,1393.06C753.477,1397.2 750.3,1431.32 716.526,1425.6C703.566,1423.4 655.369,1353.91 652.868,1356.12C639.65,1367.76 695.8,1436.58 706.188,1438.64C769.923,1451.3 757.919,1396.48 759.611,1400.43C766.851,1417.31 791.297,1405.66 806.675,1386.5C809.512,1382.96 860.698,1423.09 901.593,1408.33C911.409,1404.78 920.976,1383.65 920.012,1381.72C910.924,1363.55 829.011,1378.49 817.579,1379.63Z" style="fill:rgb(249,250,251);"/>
                        </g>
                        <g transform="matrix(1,0,0,1,48.2298,-445.876)">
                            <path d="M830.949,1219.95C816.9,1205.9 764.809,1102.26 742.551,1080.59C723.742,1062.27 685.39,1053.25 699.112,1107.88C700.745,1114.38 794.676,1312.67 796.433,1319.7C797.869,1325.44 894.925,1301.9 892.567,1299.55C892.506,1299.48 900.172,1087.39 896.557,1073.47C887.712,1039.41 849.886,1047.74 847.109,1077.14C844.528,1104.46 840.665,1210.23 830.949,1219.95Z" style="fill:rgb(249,250,251);"/>
                        </g>
                        <g transform="matrix(1,0,0,1,111.021,-370.782)">
                            <path d="M319.112,912.96C290.591,890.172 238.328,802.976 204.336,751.751C183.407,720.212 213.212,711.296 229.811,728.694C245.704,745.35 319.218,831.159 327.139,830.709C338.768,830.049 278.61,739.935 262.901,695.69C250.034,659.449 280.293,641.35 302.896,668.344C336.142,708.048 381.303,792.549 392.673,789.725C402.073,787.39 360.002,669.427 358.104,664.052C344.272,624.871 384.347,606.678 403.553,654.294C414.978,682.62 462.271,802.414 466.001,776.298C472.753,729.035 472.946,721.686 476.306,686.862C480.009,648.474 513.656,641.406 515.718,689.853C516.764,714.437 519.295,815.162 540.003,835.868C563.781,859.643 645.846,949.669 583.715,1047.63C582.731,1049.19 567.032,1136.34 414.462,1117.31C328.174,1106.55 274.053,1043.02 261.875,1006.49C248.944,967.695 402.565,896.709 414.558,891.912C419.756,889.833 430.403,884.948 436.009,883.079C478.938,868.77 441.44,954.202 411.176,966.411C408.575,967.461 383.578,986.328 362.822,989.074C340.718,991.999 352.795,1018.69 377.056,1016.18C439.883,1009.69 469.582,921.845 474.723,905.944C484.369,876.108 453.755,857.019 437.766,858.367C395.214,861.957 336.286,895.786 319.112,912.96Z" style="fill:rgb(249,250,251);"/>
                        </g>
                    </g>
                </g>
            </g>
        </g>
    </g>
</svg>
