<?xml version="1.0" encoding="UTF-8" standalone="no"?>
<!DOCTYPE svg PUBLIC "-//W3C//DTD SVG 1.1//EN" "http://www.w3.org/Graphics/SVG/1.1/DTD/svg11.dtd">
<svg width="100%" height="100%" viewBox="0 0 1619 1168" version="1.1" xmlns="http://www.w3.org/2000/svg" xmlns:xlink="http://www.w3.org/1999/xlink" xml:space="preserve" xmlns:serif="http://www.serif.com/" style="fill-rule:evenodd;clip-rule:evenodd;stroke-linejoin:round;stroke-miterlimit:2;">
    <g transform="matrix(1,0,0,1,-2415.65,-224.048)">
        <g id="Red-Arrow" serif:id="Red Arrow" transform="matrix(0.591863,0,0,0.778772,2572.07,1558)">
            <rect x="-264.293" y="-1712.88" width="2735.27" height="1499.33" style="fill:none;"/>
            <clipPath id="_clip1">
                <rect x="-264.293" y="-1712.88" width="2735.27" height="1499.33"/>
            </clipPath>
            <g clip-path="url(#_clip1)">
                <g id="Red-Arrow1" serif:id="Red Arrow" transform="matrix(0.776934,0,0,0.592248,1117.56,-945.336)">
                    <g transform="matrix(1,0,0,1,-1735.42,-1275)">
                        <clipPath id="_clip2">
                            <rect x="0" y="0" width="3470.83" height="2550"/>
                        </clipPath>
                        <g clip-path="url(#_clip2)">
                            <g id="Purple-Arrow-1" serif:id="Purple Arrow 1" transform="matrix(1.1556,0,0,1.33665,223.333,840.075)">
                                <g>
                                    <rect x="-193.265" y="-628.49" width="3000.42" height="1905.41" style="fill:none;"/>
                                    <g id="Arrow-2-Red" serif:id="Arrow 2 Red" transform="matrix(3.60565,0,0,3.11723,-1292.95,-6384.37)">
                                        <g transform="matrix(1,0,0,1,-49.2119,-71.925)">
                                            <path d="M398.142,2086.54C436.218,2081.35 658.354,2123.54 729.552,2137.74C734.208,2138.66 692.469,1947.38 698.681,1948.94C726.964,1956.01 1099.98,2140.27 1108.28,2151.34C1108.64,2151.83 786.622,2483.04 778.256,2491.4C765.671,2503.99 741.6,2307.41 736.552,2295.3C733.752,2288.58 418.272,2401.4 416.217,2376.13C413.773,2346.08 369.298,2090.47 398.142,2086.54Z" style="fill:rgb(224,36,36);"/>
                                            <path d="M717.472,2124.73C713.576,2102.73 704.817,2053.51 697.966,2016.91C693.621,1993.69 689.939,1972.97 688.432,1960.97C687.587,1954.24 687.566,1949.6 687.927,1947.7L688.583,1945.42L689.818,1943.12L693.152,1940.01L697.206,1938.6L701.207,1938.83C723.972,1944.52 968.805,2064.12 1070.06,2117.5C1090.67,2128.37 1105.42,2136.56 1111.37,2140.55C1112.92,2141.58 1114.05,2142.46 1114.77,2143.1L1116.61,2145.09L1118.37,2148.77L1118.69,2151.4L1118.41,2153.76L1117.63,2155.92L1116.11,2158.22C1115.54,2158.88 1112.3,2162.3 1106.86,2167.97C1054.86,2222.08 793.154,2491.24 785.621,2498.77L783.701,2500.35L781.055,2501.7L776.701,2502.39L773.573,2501.88L771.076,2500.79L768.921,2499.26L766.796,2496.99C764.634,2494.2 761.987,2488.3 759.562,2479.89C748.323,2440.92 734.542,2336.83 728.753,2306.89C693.024,2315.78 568.262,2358.09 488.381,2378.63C465.223,2384.59 445.708,2388.73 432.915,2389.89C426.043,2390.51 420.722,2390.23 417.243,2389.33L412.467,2387.39L409.121,2384.65L406.861,2381.11L405.835,2376.98C403.87,2352.81 374.986,2183.54 378.306,2114.78C379.002,2100.37 381.46,2089.76 384.908,2084.3L387.315,2081.18L390.703,2078.4L393.56,2077.01L396.736,2076.22C432.951,2071.29 634.045,2108.41 717.472,2124.73ZM425.935,2369.18C428.705,2369.16 432.69,2369.02 436.276,2368.53C448.16,2366.91 464.403,2363.29 483.192,2358.45C567.642,2336.74 702.059,2290.87 729.528,2285.34C732.056,2284.83 733.98,2284.62 735.228,2284.59L739.24,2285.11L743.257,2287.29L744.85,2288.99L746.167,2291.29C750.231,2301.04 766.731,2429.57 779.579,2474.12C779.656,2474.38 779.735,2474.65 779.816,2474.91C827.141,2426.39 1044.92,2202.36 1091.84,2153.53C1091.88,2153.49 1091.92,2153.45 1091.95,2153.41C1084.42,2149.06 1072.87,2142.53 1060.35,2135.93C970.721,2088.68 767.382,1988.61 709.878,1964.26C711.627,1976.13 714.817,1993.7 718.444,2013.07C727.775,2062.93 740.009,2124.27 740.322,2135.62L740.169,2138.74L739.544,2141.19L737.139,2144.98L735.361,2146.44L732.917,2147.62L730.118,2148.14L727.515,2147.95C658.555,2134.2 446.601,2093.52 402.222,2096.6C401.458,2099.65 399.485,2108.13 399.116,2115.78C396.034,2179.59 421.177,2330.82 425.935,2369.18Z" style="fill:rgb(17,24,39);"/>
                                        </g>
                                        <g transform="matrix(0.96923,0,0,0.99431,-393.175,1060.42)">
                                            <g id="Red-Arrow---Light" serif:id="Red Arrow - Light">
                                                <path d="M1265.64,919.567C1277.01,923.356 1413.82,1033.77 1412.12,1034.65C1406.39,1037.62 1305.02,1202.31 1336.84,1171.45C1469.08,1043.28 1482.29,1029.11 1480.42,1026.03C1478.77,1023.3 1277.75,922.595 1265.64,919.567Z" style="fill:rgb(200,30,30);"/>
                                            </g>
                                        </g>
                                    </g>
                                </g>
                            </g>
                        </g>
                    </g>
                </g>
            </g>
        </g>
    </g>
</svg>
