<?xml version="1.0" encoding="UTF-8" standalone="no"?>
<!DOCTYPE svg PUBLIC "-//W3C//DTD SVG 1.1//EN" "http://www.w3.org/Graphics/SVG/1.1/DTD/svg11.dtd">
<svg width="100%" height="100%" viewBox="0 0 1121 218" version="1.1" xmlns="http://www.w3.org/2000/svg" xmlns:xlink="http://www.w3.org/1999/xlink" xml:space="preserve" xmlns:serif="http://www.serif.com/" style="fill-rule:evenodd;clip-rule:evenodd;stroke-linejoin:round;stroke-miterlimit:2;">
    <g id="Artboard2" transform="matrix(1.0444,0,0,0.567792,322.146,318.745)">
        <rect x="-308.451" y="-561.377" width="1072.4" height="382.864" style="fill:none;"/>
        <g id="Tagline---Uppercase" serif:id="Tagline - Uppercase" transform="matrix(3.78173,0,0,3.34596,8149.87,-3166.29)">
            <g>
                <g transform="matrix(0.253188,0,0,0.526369,-2334.7,639.397)">
                    <path d="M486.4,332.913C488.304,336.478 489.094,340.574 488.602,344.659C487.985,349.777 486.472,354.711 484.022,359.447C481.607,364.115 478.391,368.297 474.332,371.963C470.329,375.578 465.601,378.488 460.082,380.586C454.904,382.555 449.074,383.644 442.556,383.644C433.438,383.644 425.326,381.452 418.155,377.326C410.703,373.038 404.747,366.904 400.441,358.778C396.619,351.563 394.444,342.887 394.444,332.632C394.444,322.319 396.653,313.605 400.532,306.37C404.878,298.264 410.856,292.157 418.306,287.897C425.499,283.784 433.564,281.62 442.556,281.62C448.294,281.62 453.614,282.477 458.53,284.089C463.918,285.856 468.679,288.458 472.848,291.832C477.206,295.359 480.78,299.655 483.532,304.752C486.124,309.554 487.877,315.024 488.608,321.218C489.088,325.287 488.296,329.364 486.4,332.913Z" style="fill:rgb(46,46,46);fill-rule:nonzero;"/>
                    <path d="M536.16,322.776C536.503,324.24 536.685,325.766 536.685,327.335L536.685,337.9C536.685,339.424 536.513,340.908 536.188,342.334C537.915,345.28 538.904,348.71 538.904,352.371L538.904,362.935C538.904,373.915 530.003,382.816 519.024,382.816L478.067,382.816C467.088,382.816 458.187,373.915 458.187,362.935L458.187,302.329C458.187,291.35 467.088,282.449 478.067,282.449L518.905,282.449C529.885,282.449 538.786,291.35 538.786,302.329L538.786,312.894C538.786,316.491 537.831,319.865 536.16,322.776Z" style="fill:rgb(46,46,46);fill-rule:nonzero;"/>
                    <path d="M509.234,362.935L509.234,302.329C509.234,291.35 518.135,282.449 529.115,282.449L541.929,282.449C552.908,282.449 561.809,291.35 561.809,302.329L561.809,332.49L567.911,332.49C578.891,332.49 587.792,341.391 587.792,352.371L587.792,362.935C587.792,373.915 578.891,382.816 567.911,382.816L529.115,382.816C518.135,382.816 509.234,373.915 509.234,362.935Z" style="fill:rgb(46,46,46);fill-rule:nonzero;"/>
                    <path d="M634.497,322.776C634.84,324.24 635.022,325.766 635.022,327.335L635.022,337.9C635.022,339.424 634.85,340.908 634.525,342.334C636.252,345.28 637.241,348.71 637.241,352.371L637.241,362.935C637.241,373.915 628.34,382.816 617.361,382.816L576.404,382.816C565.425,382.816 556.524,373.915 556.524,362.935L556.524,302.329C556.524,291.35 565.425,282.449 576.404,282.449L617.242,282.449C628.222,282.449 637.123,291.35 637.123,302.329L637.123,312.894C637.123,316.491 636.167,319.865 634.497,322.776Z" style="fill:rgb(46,46,46);fill-rule:nonzero;"/>
                    <path d="M689.658,328.889L693.041,337.281L694.089,346.186L692.771,356.056L688.637,365.396L681.74,373.319L673.274,378.728C667.87,381.276 661.262,382.816 653.346,382.816L627.452,382.816C616.472,382.816 607.571,373.915 607.571,362.935L607.571,302.329C607.571,291.35 616.472,282.449 627.452,282.449L651.718,282.449C659.419,282.449 665.792,283.857 670.937,286.14L679.368,291.281L686.326,299.069L690.428,308.23L691.722,317.865L690.869,325.618L689.658,328.889Z" style="fill:rgb(46,46,46);fill-rule:nonzero;"/>
                    <path d="M742.197,343.213L747.764,353.406C751.128,359.566 750.995,367.043 747.414,373.079C743.833,379.115 737.335,382.816 730.316,382.816L716.171,382.816C712.425,382.816 708.835,381.762 705.757,379.87C702.727,381.738 699.158,382.816 695.338,382.816L682.524,382.816C671.544,382.816 662.644,373.915 662.644,362.935L662.644,302.329C662.644,291.35 671.544,282.449 682.524,282.449L706.435,282.449C714.509,282.449 721.356,284.129 727.081,287L735.985,293.145L742.833,301.759C746.164,307.555 748.037,314.309 748.037,322.127C748.037,330.149 746.055,336.975 742.594,342.736L742.197,343.213Z" style="fill:rgb(46,46,46);fill-rule:nonzero;"/>
                    <path d="M763.09,375.47C759.392,380.021 753.771,382.816 747.658,382.816L733.927,382.816C727.499,382.816 721.468,379.708 717.737,374.474C714.007,369.239 713.037,362.524 715.134,356.448L736.057,295.842C738.824,287.827 746.37,282.449 754.849,282.449L771.362,282.449C779.844,282.449 787.392,287.831 790.157,295.85L811.049,356.456C813.144,362.532 812.172,369.245 808.441,374.477C804.71,379.709 798.68,382.816 792.254,382.816L778.523,382.816C772.409,382.816 766.789,380.021 763.09,375.47Z" style="fill:rgb(46,46,46);fill-rule:nonzero;"/>
                    <path d="M840.869,332.731L840.869,362.935C840.869,373.915 831.968,382.816 820.989,382.816L808.323,382.816C797.343,382.816 788.443,373.915 788.443,362.935L788.443,332.731C778.081,332.049 769.888,323.428 769.888,312.894L769.888,302.329C769.888,291.35 778.789,282.449 789.768,282.449L839.543,282.449C850.523,282.449 859.424,291.35 859.424,302.329L859.424,312.894C859.424,323.428 851.231,332.049 840.869,332.731Z" style="fill:rgb(46,46,46);fill-rule:nonzero;"/>
                    <path d="M905.863,322.776C906.206,324.24 906.388,325.766 906.388,327.335L906.388,337.9C906.388,339.424 906.216,340.908 905.891,342.334C907.618,345.28 908.607,348.71 908.607,352.371L908.607,362.935C908.607,373.915 899.706,382.816 888.727,382.816L847.77,382.816C836.791,382.816 827.89,373.915 827.89,362.935L827.89,302.329C827.89,291.35 836.791,282.449 847.77,282.449L888.608,282.449C899.588,282.449 908.489,291.35 908.489,302.329L908.489,312.894C908.489,316.491 907.533,319.865 905.863,322.776Z" style="fill:rgb(46,46,46);fill-rule:nonzero;"/>
                    <path d="M939.626,382.816L918.142,382.816C907.162,382.816 898.261,373.915 898.261,362.935L898.261,302.329C898.261,291.35 907.162,282.449 918.142,282.449L939.804,282.449C949.628,282.449 958.029,284.635 965.119,288.53C972.981,292.849 979.057,299.025 983.306,307.099C987.048,314.21 989.159,322.666 989.159,332.573C989.159,342.485 987.055,350.951 983.322,358.075C979.073,366.186 972.972,372.393 965.055,376.731C957.946,380.626 949.507,382.816 939.626,382.816Z" style="fill:rgb(46,46,46);fill-rule:nonzero;"/>
                    <path d="M1011.44,302.329L1011.44,362.935C1011.44,373.915 1002.54,382.816 991.562,382.816L978.748,382.816C967.768,382.816 958.868,373.915 958.868,362.935L958.868,302.329C958.868,291.35 967.768,282.449 978.748,282.449L991.562,282.449C1002.54,282.449 1011.44,291.35 1011.44,302.329Z" style="fill:rgb(46,46,46);fill-rule:nonzero;"/>
                    <path d="M1028.02,289.217C1031.71,285.009 1037.11,282.449 1042.96,282.449L1057.17,282.449C1063.6,282.449 1069.62,285.555 1073.36,290.787C1077.09,296.02 1078.06,302.733 1075.96,308.808L1055.07,369.414C1052.31,377.434 1044.76,382.816 1036.28,382.816L1019.76,382.816C1011.28,382.816 1003.74,377.438 1000.97,369.423L980.049,308.817C977.952,302.741 978.921,296.025 982.652,290.791C986.382,285.557 992.414,282.449 998.842,282.449L1013.08,282.449C1018.93,282.449 1024.33,285.009 1028.02,289.217Z" style="fill:rgb(46,46,46);fill-rule:nonzero;"/>
                    <path d="M1122.54,322.776C1122.88,324.24 1123.07,325.766 1123.07,327.335L1123.07,337.9C1123.07,339.424 1122.89,340.908 1122.57,342.334C1124.3,345.28 1125.29,348.71 1125.29,352.371L1125.29,362.935C1125.29,373.915 1116.38,382.816 1105.4,382.816L1064.45,382.816C1053.47,382.816 1044.57,373.915 1044.57,362.935L1044.57,302.329C1044.57,291.35 1053.47,282.449 1064.45,282.449L1105.29,282.449C1116.27,282.449 1125.17,291.35 1125.17,302.329L1125.17,312.894C1125.17,316.491 1124.21,319.865 1122.54,322.776Z" style="fill:rgb(46,46,46);fill-rule:nonzero;"/>
                    <path d="M1175.17,343.213L1180.74,353.406C1184.1,359.566 1183.97,367.043 1180.39,373.079C1176.81,379.115 1170.31,382.816 1163.29,382.816L1149.14,382.816C1145.4,382.816 1141.81,381.762 1138.73,379.87C1135.7,381.738 1132.13,382.816 1128.31,382.816L1115.5,382.816C1104.52,382.816 1095.62,373.915 1095.62,362.935L1095.62,302.329C1095.62,291.35 1104.52,282.449 1115.5,282.449L1139.41,282.449C1147.48,282.449 1154.33,284.129 1160.05,287L1168.96,293.145L1175.81,301.759C1179.14,307.555 1181.01,314.309 1181.01,322.127C1181.01,330.149 1179.03,336.975 1175.57,342.736L1175.17,343.213Z" style="fill:rgb(46,46,46);fill-rule:nonzero;"/>
                    <path d="M1152.17,332.191L1150.53,326.564L1149.96,319.883L1151.54,308.872L1156.66,298.582C1160.62,293.107 1165.97,288.706 1172.9,285.633C1178.74,283.044 1185.36,281.62 1192.79,281.62C1200.46,281.62 1207.12,283.108 1212.86,285.73C1216.16,287.242 1219.08,289.073 1221.65,291.175L1228.86,299.013L1233.59,308.881L1235.22,319.434C1235.28,323.143 1234.3,326.761 1232.44,329.899L1232.86,330.604L1235.29,338.061L1236.05,345.468L1236.05,345.729L1234.53,356.41L1229.73,366.516L1222.19,374.519C1219.55,376.587 1216.53,378.387 1213.08,379.854C1207.41,382.264 1200.62,383.674 1192.64,383.674C1184.83,383.674 1178.05,382.308 1172.27,379.912C1168.69,378.43 1165.52,376.562 1162.74,374.363L1155.02,366.113C1150.99,360.235 1148.55,353.046 1148.36,344.357C1148.26,339.967 1149.61,335.697 1152.17,332.191Z" style="fill:rgb(46,46,46);fill-rule:nonzero;"/>
                    <path d="M1257.45,302.329L1257.45,362.935C1257.45,373.915 1248.55,382.816 1237.57,382.816L1224.75,382.816C1213.77,382.816 1204.87,373.915 1204.87,362.935L1204.87,302.329C1204.87,291.35 1213.77,282.449 1224.75,282.449L1237.57,282.449C1248.55,282.449 1257.45,291.35 1257.45,302.329Z" style="fill:rgb(46,46,46);fill-rule:nonzero;"/>
                    <path d="M1296.92,332.731L1296.92,362.935C1296.92,373.915 1288.02,382.816 1277.04,382.816L1264.38,382.816C1253.4,382.816 1244.5,373.915 1244.5,362.935L1244.5,332.731C1234.14,332.049 1225.94,323.428 1225.94,312.894L1225.94,302.329C1225.94,291.35 1234.84,282.449 1245.82,282.449L1295.6,282.449C1306.58,282.449 1315.48,291.35 1315.48,302.329L1315.48,312.894C1315.48,323.428 1307.29,332.049 1296.92,332.731Z" style="fill:rgb(46,46,46);fill-rule:nonzero;"/>
                    <path d="M1328.74,288.329C1332.42,284.621 1337.48,282.449 1342.86,282.449L1357.21,282.449C1364.28,282.449 1370.81,286.201 1374.38,292.304C1377.94,298.407 1378,305.943 1374.53,312.098L1354.99,346.732L1354.99,362.935C1354.99,373.915 1346.08,382.816 1335.11,382.816L1322.38,382.816C1311.4,382.816 1302.5,373.915 1302.5,362.935L1302.5,346.731L1282.96,312.098C1279.49,305.943 1279.54,298.407 1283.11,292.304C1286.67,286.201 1293.21,282.449 1300.27,282.449L1314.63,282.449C1320.01,282.449 1325.06,284.621 1328.74,288.329Z" style="fill:rgb(46,46,46);fill-rule:nonzero;"/>
                    <path d="M473.482,406.109C473.826,407.573 474.007,409.1 474.007,410.668L474.007,421.233C474.007,422.757 473.836,424.241 473.511,425.667C475.237,428.613 476.227,432.043 476.227,435.704L476.227,446.269C476.227,457.248 467.326,466.149 456.346,466.149L415.39,466.149C404.41,466.149 395.509,457.248 395.509,446.269L395.509,385.663C395.509,374.683 404.41,365.782 415.39,365.782L456.228,365.782C467.208,365.782 476.108,374.683 476.108,385.663L476.108,396.227C476.108,399.824 475.153,403.198 473.482,406.109Z" style="fill:rgb(46,46,46);fill-rule:nonzero;"/>
                    <path d="M499.285,375.43C502.839,369.507 509.279,365.782 516.331,365.782L532.133,365.782C543.113,365.782 552.014,374.683 552.014,385.663L552.014,446.269C552.014,457.248 543.113,466.149 532.133,466.149L519.704,466.149C516.691,466.149 513.833,465.478 511.274,464.278C508.867,465.299 506.238,465.853 503.517,465.853L495.054,465.853C492.333,465.853 489.704,465.299 487.297,464.278C484.737,465.478 481.88,466.149 478.866,466.149L466.437,466.149C455.458,466.149 446.557,457.248 446.557,446.269L446.557,385.663C446.557,374.683 455.458,365.782 466.437,365.782L482.24,365.782C489.291,365.782 495.732,369.507 499.285,375.43Z" style="fill:rgb(46,46,46);fill-rule:nonzero;"/>
                    <path d="M575.363,445.716L575.363,446.269C575.363,457.248 566.462,466.149 555.482,466.149L542.668,466.149C531.689,466.149 522.788,457.248 522.788,446.269L522.788,385.663C522.788,374.683 531.689,365.782 542.668,365.782L566.579,365.782C574.894,365.782 581.917,367.628 587.769,370.786L596.508,377.191L603.14,385.915C606.392,391.797 608.181,398.532 608.181,406.2C608.181,413.93 606.347,420.71 603.012,426.621L596.24,435.338L587.372,441.664C583.81,443.526 579.815,444.915 575.363,445.716Z" style="fill:rgb(46,46,46);fill-rule:nonzero;"/>
                    <path d="M672.22,415.966C672.22,426.291 670,435.014 666.101,442.257C661.739,450.361 655.733,456.471 648.232,460.73C641.02,464.826 632.947,466.978 623.96,466.978C614.899,466.978 606.798,464.804 599.596,460.689C592.116,456.415 586.131,450.298 581.788,442.198C577.907,434.959 575.7,426.255 575.7,415.966C575.7,405.652 577.909,396.938 581.788,389.703C586.138,381.59 592.134,375.474 599.626,371.21C606.819,367.117 614.911,364.953 623.96,364.953C632.947,364.953 641.02,367.105 648.232,371.201C655.733,375.46 661.739,381.57 666.101,389.675C670,396.918 672.22,405.64 672.22,415.966ZM623.154,415.966C623.411,416.019 623.679,416.048 623.96,416.048C624.241,416.048 624.509,416.019 624.765,415.966C624.509,415.912 624.241,415.883 623.96,415.883C623.679,415.883 623.411,415.912 623.154,415.966Z" style="fill:rgb(46,46,46);fill-rule:nonzero;"/>
                    <path d="M680.63,368.972C683.768,366.941 687.491,365.782 691.431,365.782L703.417,365.782C707.357,365.782 711.081,366.941 714.218,368.972C717.353,366.942 721.076,365.782 725.019,365.782L739.017,365.782C745.256,365.782 751.134,368.712 754.891,373.694C758.647,378.676 759.847,385.133 758.13,391.132L740.789,451.738C738.348,460.269 730.549,466.149 721.675,466.149L709.187,466.149C704.841,466.149 700.752,464.738 697.424,462.296C694.096,464.738 690.007,466.149 685.661,466.149L673.173,466.149C664.299,466.149 656.5,460.269 654.059,451.738L636.718,391.132C635.001,385.133 636.201,378.676 639.957,373.694C643.714,368.712 649.592,365.782 655.831,365.782L669.829,365.782C673.772,365.782 677.495,366.942 680.63,368.972Z" style="fill:rgb(46,46,46);fill-rule:nonzero;"/>
                    <path d="M803.945,406.109C804.288,407.573 804.47,409.1 804.47,410.668L804.47,421.233C804.47,422.757 804.299,424.241 803.974,425.667C805.7,428.613 806.69,432.043 806.69,435.704L806.69,446.269C806.69,457.248 797.789,466.149 786.809,466.149L745.853,466.149C734.873,466.149 725.972,457.248 725.972,446.269L725.972,385.663C725.972,374.683 734.873,365.782 745.853,365.782L786.691,365.782C797.67,365.782 806.571,374.683 806.571,385.663L806.571,396.227C806.571,399.824 805.616,403.198 803.945,406.109Z" style="fill:rgb(46,46,46);fill-rule:nonzero;"/>
                    <path d="M856.574,426.546L862.141,436.74C865.505,442.899 865.372,450.376 861.79,456.412C858.209,462.448 851.711,466.149 844.693,466.149L830.547,466.149C826.801,466.149 823.211,465.096 820.133,463.203C817.103,465.071 813.535,466.149 809.714,466.149L796.9,466.149C785.921,466.149 777.02,457.248 777.02,446.269L777.02,385.663C777.02,374.683 785.921,365.782 796.9,365.782L820.811,365.782C828.885,365.782 835.732,367.462 841.457,370.333L850.361,376.478L857.209,385.092C860.54,390.888 862.413,397.643 862.413,405.46C862.413,413.482 860.431,420.309 856.97,426.069L856.574,426.546Z" style="fill:rgb(46,46,46);fill-rule:nonzero;"/>
                    <path d="M941.922,416.247C943.826,419.811 944.616,423.908 944.124,427.993C943.507,433.11 941.994,438.044 939.544,442.781C937.129,447.448 933.913,451.631 929.854,455.297C925.851,458.911 921.123,461.821 915.604,463.919C910.426,465.888 904.596,466.978 898.078,466.978C888.96,466.978 880.848,464.786 873.677,460.659C866.225,456.371 860.269,450.237 855.963,442.111C852.141,434.896 849.966,426.22 849.966,415.966C849.966,405.652 852.175,396.938 856.054,389.703C860.4,381.598 866.378,375.49 873.828,371.23C881.021,367.117 889.086,364.953 898.078,364.953C903.816,364.953 909.136,365.811 914.052,367.423C919.44,369.189 924.201,371.792 928.37,375.166C932.728,378.693 936.302,382.988 939.054,388.085C941.646,392.887 943.399,398.357 944.13,404.551C944.61,408.62 943.818,412.697 941.922,416.247Z" style="fill:rgb(46,46,46);fill-rule:nonzero;"/>
                    <path d="M1009.16,415.966C1009.16,426.291 1006.94,435.014 1003.05,442.257C998.682,450.361 992.677,456.471 985.176,460.73C977.963,464.826 969.89,466.978 960.904,466.978C951.843,466.978 943.741,464.804 936.54,460.689C929.06,456.415 923.075,450.298 918.732,442.198C914.85,434.959 912.644,426.255 912.644,415.966C912.644,405.652 914.853,396.938 918.732,389.703C923.082,381.59 929.078,375.474 936.57,371.21C943.763,367.117 951.854,364.953 960.904,364.953C969.89,364.953 977.963,367.105 985.176,371.201C992.677,375.46 998.682,381.57 1003.05,389.675C1006.94,396.918 1009.16,405.64 1009.16,415.966ZM960.098,415.966C960.355,416.019 960.623,416.048 960.904,416.048C961.184,416.048 961.452,416.019 961.709,415.966C961.452,415.912 961.184,415.883 960.904,415.883C960.623,415.883 960.355,415.912 960.098,415.966Z" style="fill:rgb(46,46,46);fill-rule:nonzero;"/>
                    <path d="M1031.6,375.43C1035.15,369.507 1041.6,365.782 1048.65,365.782L1064.45,365.782C1075.43,365.782 1084.33,374.683 1084.33,385.663L1084.33,446.269C1084.33,457.248 1075.43,466.149 1064.45,466.149L1052.02,466.149C1049.01,466.149 1046.15,465.478 1043.59,464.278C1041.18,465.299 1038.55,465.853 1035.83,465.853L1027.37,465.853C1024.65,465.853 1022.02,465.299 1019.61,464.278C1017.05,465.478 1014.2,466.149 1011.18,466.149L998.753,466.149C987.773,466.149 978.872,457.248 978.872,446.269L978.872,385.663C978.872,374.683 987.773,365.782 998.753,365.782L1014.56,365.782C1021.61,365.782 1028.05,369.507 1031.6,375.43Z" style="fill:rgb(46,46,46);fill-rule:nonzero;"/>
                    <path d="M1107.83,375.43C1111.38,369.507 1117.83,365.782 1124.88,365.782L1140.68,365.782C1151.66,365.782 1160.56,374.683 1160.56,385.663L1160.56,446.269C1160.56,457.248 1151.66,466.149 1140.68,466.149L1128.25,466.149C1125.24,466.149 1122.38,465.478 1119.82,464.278C1117.41,465.299 1114.78,465.853 1112.06,465.853L1103.6,465.853C1100.88,465.853 1098.25,465.299 1095.84,464.278C1093.28,465.478 1090.43,466.149 1087.41,466.149L1074.98,466.149C1064,466.149 1055.1,457.248 1055.1,446.269L1055.1,385.663C1055.1,374.683 1064,365.782 1074.98,365.782L1090.79,365.782C1097.84,365.782 1104.28,369.507 1107.83,375.43Z" style="fill:rgb(46,46,46);fill-rule:nonzero;"/>
                    <path d="M1176.34,370.051C1179.73,367.378 1184,365.782 1188.65,365.782L1201.46,365.782C1212.44,365.782 1221.34,374.683 1221.34,385.663L1221.34,425.021C1221.34,433.514 1219.14,440.895 1215.1,447.266C1211.06,453.636 1205.49,458.67 1198.25,462.216C1191.97,465.29 1184.69,467.007 1176.34,467.007C1167.96,467.007 1160.67,465.287 1154.4,462.216C1147.14,458.662 1141.57,453.615 1137.54,447.23C1133.53,440.87 1131.33,433.501 1131.33,425.021L1131.33,385.663C1131.33,374.683 1140.24,365.782 1151.21,365.782L1164.03,365.782C1168.68,365.782 1172.95,367.378 1176.34,370.051Z" style="fill:rgb(46,46,46);fill-rule:nonzero;"/>
                    <path d="M1236.59,370.928C1240.12,367.73 1244.8,365.782 1249.94,365.782L1262.69,365.782C1273.67,365.782 1282.57,374.683 1282.57,385.663L1282.57,446.269C1282.57,457.248 1273.67,466.149 1262.69,466.149L1251.62,466.149C1246.61,466.149 1241.84,464.259 1238.22,460.95C1234.68,464.179 1229.98,466.149 1224.81,466.149L1212,466.149C1201.02,466.149 1192.12,457.248 1192.12,446.269L1192.12,385.663C1192.12,374.683 1201.02,365.782 1212,365.782L1223.24,365.782C1228.23,365.782 1232.97,367.652 1236.59,370.928Z" style="fill:rgb(46,46,46);fill-rule:nonzero;"/>
                    <path d="M1305.95,385.663L1305.95,446.269C1305.95,457.248 1297.05,466.149 1286.07,466.149L1273.26,466.149C1262.28,466.149 1253.38,457.248 1253.38,446.269L1253.38,385.663C1253.38,374.683 1262.28,365.782 1273.26,365.782L1286.07,365.782C1297.05,365.782 1305.95,374.683 1305.95,385.663Z" style="fill:rgb(46,46,46);fill-rule:nonzero;"/>
                    <path d="M1345.43,416.064L1345.43,446.269C1345.43,457.248 1336.53,466.149 1325.55,466.149L1312.88,466.149C1301.9,466.149 1293,457.248 1293,446.269L1293,416.064C1282.64,415.382 1274.44,406.761 1274.44,396.227L1274.44,385.663C1274.44,374.683 1283.35,365.782 1294.33,365.782L1344.1,365.782C1355.08,365.782 1363.98,374.683 1363.98,385.663L1363.98,396.227C1363.98,406.761 1355.79,415.382 1345.43,416.064Z" style="fill:rgb(46,46,46);fill-rule:nonzero;"/>
                    <path d="M1385.02,385.663L1385.02,446.269C1385.02,457.248 1376.12,466.149 1365.14,466.149L1352.33,466.149C1341.35,466.149 1332.45,457.248 1332.45,446.269L1332.45,385.663C1332.45,374.683 1341.35,365.782 1352.33,365.782L1365.14,365.782C1376.12,365.782 1385.02,374.683 1385.02,385.663Z" style="fill:rgb(46,46,46);fill-rule:nonzero;"/>
                    <path d="M1433.8,406.109C1434.14,407.573 1434.32,409.1 1434.32,410.668L1434.32,421.233C1434.32,422.757 1434.15,424.241 1433.83,425.667C1435.55,428.613 1436.54,432.043 1436.54,435.704L1436.54,446.269C1436.54,457.248 1427.64,466.149 1416.66,466.149L1375.71,466.149C1364.73,466.149 1355.83,457.248 1355.83,446.269L1355.83,385.663C1355.83,374.683 1364.73,365.782 1375.71,365.782L1416.54,365.782C1427.52,365.782 1436.42,374.683 1436.42,385.663L1436.42,396.227C1436.42,399.824 1435.47,403.198 1433.8,406.109Z" style="fill:rgb(46,46,46);fill-rule:nonzero;"/>
                    <path d="M1408.74,415.525L1407.1,409.897L1406.53,403.216L1408.11,392.205L1413.23,381.916C1417.19,376.44 1422.54,372.039 1429.47,368.967C1435.31,366.377 1441.93,364.953 1449.36,364.953C1457.03,364.953 1463.69,366.441 1469.43,369.064C1472.73,370.575 1475.65,372.406 1478.22,374.509L1485.42,382.346L1490.16,392.214L1491.79,402.767C1491.85,406.476 1490.87,410.095 1489.01,413.233L1489.43,413.937L1491.86,421.394L1492.62,428.802L1492.62,429.063L1491.1,439.744L1486.3,449.85L1478.76,457.852C1476.12,459.92 1473.09,461.72 1469.65,463.187C1463.98,465.597 1457.19,467.007 1449.21,467.007C1441.39,467.007 1434.62,465.641 1428.84,463.245C1425.26,461.763 1422.09,459.895 1419.31,457.696L1411.59,449.446C1407.56,443.568 1405.12,436.38 1404.92,427.69C1404.83,423.3 1406.18,419.03 1408.74,415.525Z" style="fill:rgb(46,46,46);fill-rule:nonzero;"/>
                </g>
                <g transform="matrix(0.253188,0,0,0.526369,-2274.39,520.666)">
                    <rect x="612.975" y="603.468" width="13.286" height="15.858" style="fill:rgb(46,46,46);"/>
                </g>
                <g transform="matrix(0.253188,0,0,0.526369,-2274.39,520.666)">
                    <rect x="720.978" y="639.04" width="3.857" height="9.857" style="fill:rgb(46,46,46);"/>
                </g>
                <g transform="matrix(0.253188,0,0,0.526369,-2274.39,520.666)">
                    <rect x="1056.72" y="562.324" width="12.429" height="33.001" style="fill:rgb(46,46,46);"/>
                </g>
                <g transform="matrix(0.885617,0,0,0.718869,-2414.84,420.008)">
                    <rect x="202.742" y="510.896" width="278.579" height="12" style="fill:rgb(46,46,46);"/>
                </g>
                <g transform="matrix(0.237112,0,0,2.6079,-2267.83,-508.324)">
                    <rect x="137.219" y="497.062" width="17.28" height="37.304" style="fill:rgb(46,46,46);"/>
                </g>
                <g transform="matrix(0.253188,0,0,0.526369,-2334.7,639.397)">
                    <text x="410.122px" y="362.935px" style="font-family:'Inter-Bold', 'Inter';font-weight:700;font-size:83.333px;fill:url(#_Linear1);">CELEBRA<tspan x="786.809px " y="362.935px ">T</tspan>E DIVERSITY</text>
                    <g transform="matrix(83.3333,0,0,83.3333,1476.06,446.269)">
                    </g>
                    <text x="410.122px" y="446.269px" style="font-family:'Inter-Bold', 'Inter';font-weight:700;font-size:83.333px;fill:url(#_Linear2);">EMPO<tspan x="654.263px " y="446.269px ">W</tspan>ER COMMUNITIES</text>
                </g>
                <g transform="matrix(0.310084,0,0,0.892538,-2354.07,391.824)">
                    <rect x="1167.82" y="491.099" width="114.431" height="9.857" style="fill:rgb(46,46,46);"/>
                </g>
                <g transform="matrix(1.11823,0,0,0.207108,-2393.56,733.46)">
                    <rect x="142.307" y="700.676" width="248.578" height="32.144" style="fill:rgb(46,46,46);"/>
                </g>
                <g transform="matrix(0.17777,0,0,0.526369,-2181.51,519.336)">
                    <rect x="1245.82" y="594.388" width="20.143" height="99.002" style="fill:rgb(46,46,46);"/>
                </g>
                <g transform="matrix(0.253188,0,0,0.870031,-2275.85,351.812)">
                    <rect x="1129.67" y="500.528" width="15.858" height="51.858" style="fill:rgb(46,46,46);"/>
                </g>
                <g transform="matrix(0.253188,0,0,0.526369,-2274.39,520.666)">
                    <rect x="1115.1" y="557.101" width="13.286" height="34.287" style="fill:rgb(46,46,46);"/>
                </g>
                <g transform="matrix(0.253188,0,0,0.526369,-2274.39,520.666)">
                    <rect x="331.996" y="664.856" width="28.126" height="21.429" style="fill:rgb(46,46,46);"/>
                </g>
                <g transform="matrix(0.253188,0,0,0.526369,-2274.39,520.666)">
                    <rect x="626.646" y="674.901" width="4.018" height="10.045" style="fill:rgb(46,46,46);"/>
                </g>
                <g transform="matrix(0.253188,0,0,0.526369,-2274.39,520.666)">
                    <rect x="620.619" y="674.231" width="12.054" height="12.724" style="fill:rgb(46,46,46);"/>
                </g>
            </g>
        </g>
    </g>
    <defs>
        <linearGradient id="_Linear1" x1="0" y1="0" x2="1" y2="0" gradientUnits="userSpaceOnUse" gradientTransform="matrix(1058.42,0,0,145.626,414.324,374.314)"><stop offset="0" style="stop-color:rgb(40,0,255);stop-opacity:1"/><stop offset="0.13" style="stop-color:rgb(15,191,225);stop-opacity:1"/><stop offset="0.29" style="stop-color:rgb(8,241,217);stop-opacity:1"/><stop offset="0.46" style="stop-color:rgb(255,201,118);stop-opacity:1"/><stop offset="0.68" style="stop-color:rgb(255,0,118);stop-opacity:1"/><stop offset="0.82" style="stop-color:rgb(226,24,150);stop-opacity:1"/><stop offset="1" style="stop-color:rgb(159,80,224);stop-opacity:1"/></linearGradient>
        <linearGradient id="_Linear2" x1="0" y1="0" x2="1" y2="0" gradientUnits="userSpaceOnUse" gradientTransform="matrix(1058.42,0,0,145.626,414.324,374.314)"><stop offset="0" style="stop-color:rgb(40,0,255);stop-opacity:1"/><stop offset="0.13" style="stop-color:rgb(15,191,225);stop-opacity:1"/><stop offset="0.29" style="stop-color:rgb(8,241,217);stop-opacity:1"/><stop offset="0.46" style="stop-color:rgb(255,201,118);stop-opacity:1"/><stop offset="0.68" style="stop-color:rgb(255,0,118);stop-opacity:1"/><stop offset="0.82" style="stop-color:rgb(226,24,150);stop-opacity:1"/><stop offset="1" style="stop-color:rgb(159,80,224);stop-opacity:1"/></linearGradient>
    </defs>
</svg>
